<?xml version="1.0" encoding="utf-8" standalone="no"?>
<!DOCTYPE svg PUBLIC "-//W3C//DTD SVG 1.1//EN"
  "http://www.w3.org/Graphics/SVG/1.1/DTD/svg11.dtd">
<!-- Created with matplotlib (http://matplotlib.org/) -->
<svg height="504pt" version="1.1" viewBox="0 0 864 504" width="864pt" xmlns="http://www.w3.org/2000/svg" xmlns:xlink="http://www.w3.org/1999/xlink">
 <defs>
  <style type="text/css">
*{stroke-linecap:butt;stroke-linejoin:round;stroke-miterlimit:100000;}
  </style>
 </defs>
 <g id="figure_1">
  <g id="patch_1">
   <path d="M 0 504 
L 864 504 
L 864 0 
L 0 0 
z
" style="fill:none;opacity:0;"/>
  </g>
  <g id="axes_1">
   <g id="patch_2">
    <path d="M 108 453.6 
L 777.6 453.6 
L 777.6 50.4 
L 108 50.4 
z
" style="fill:#ffffff;"/>
   </g>
   <g id="line2d_1">
    <path clip-path="url(#p210285c4dc)" d="M 108 258.711957 
L 114.696 288.118772 
L 121.392 228.057063 
L 128.088 355.669987 
L 134.784 260.780538 
L 141.48 319.505732 
L 148.176 305.826918 
L 154.872 298.015682 
L 161.568 293.643334 
L 168.264 319.409659 
L 174.96 282.240366 
L 181.656 264.762859 
L 188.352 286.714999 
L 195.048 277.804843 
L 201.744 248.800507 
L 208.44 299.544804 
L 215.136 243.035497 
L 221.832 287.636154 
L 228.528 279.102603 
L 235.224 290.577518 
L 241.92 200.257482 
L 248.616 218.383909 
L 255.312 188.107877 
L 262.008 193.063217 
L 268.704 253.163937 
L 275.4 279.26658 
L 282.096 275.633786 
L 288.792 294.001681 
L 295.488 312.828991 
L 302.184 364.204357 
L 308.88 125.959279 
L 315.576 115.488615 
L 322.272 101.028324 
L 328.968 279.479001 
L 335.664 282.533449 
L 342.36 293.660826 
L 349.056 216.419737 
L 355.752 301.624444 
L 362.448 288.805233 
L 369.144 327.423609 
L 375.84 188.886605 
L 382.536 287.293801 
L 389.232 273.232858 
L 395.928 273.37405 
L 402.624 282.031977 
L 409.32 186.073986 
L 416.016 317.206206 
L 422.712 267.770058 
L 429.408 294.834086 
L 436.104 290.20622 
L 442.8 207.453777 
L 449.496 212.716675 
L 456.192 146.95718 
L 462.888 254.775539 
L 469.584 286.699944 
L 476.28 295.479493 
L 482.976 354.722207 
L 489.672 331.444127 
L 496.368 342.131183 
L 503.064 343.932174 
L 509.76 328.187731 
L 516.456 301.653069 
L 523.152 327.910558 
L 529.848 306.662914 
L 536.544 330.242086 
L 543.24 292.489024 
L 549.936 314.722549 
L 556.632 327.485676 
L 563.328 98.28516 
L 570.024 89.976816 
L 576.72 309.694318 
L 583.416 290.216908 
L 590.112 279.829829 
L 596.808 269.478655 
L 603.504 237.492836 
L 610.2 220.600471 
L 616.896 272.437524 
L 623.592 290.117791 
L 630.288 301.396129 
L 636.984 278.713449 
L 643.68 329.571216 
L 650.376 266.892652 
L 657.072 285.825075 
L 663.768 295.93032 
L 670.464 279.423211 
L 677.16 318.660971 
L 683.856 283.98754 
L 690.552 271.064493 
L 697.248 261.061191 
L 703.944 290.980386 
L 710.64 227.540417 
L 717.336 279.880345 
L 724.032 335.631539 
L 730.728 298.460198 
L 737.424 305.703871 
L 744.12 204.273694 
L 750.816 333.409356 
L 757.512 295.537514 
L 764.208 278.479773 
L 770.904 298.20152 
" style="fill:none;stroke:#0000ff;stroke-linecap:square;stroke-width:1.75;"/>
   </g>
   <g id="line2d_2">
    <path clip-path="url(#p210285c4dc)" d="M 108 309.49595 
L 114.696 215.607633 
L 121.392 277.357751 
L 128.088 292.050426 
L 134.784 303.156321 
L 141.48 310.40817 
L 148.176 264.647839 
L 154.872 324.719264 
L 161.568 303.637843 
L 168.264 293.658784 
L 174.96 300.381166 
L 181.656 288.439944 
L 188.352 152.95902 
L 195.048 156.425517 
L 201.744 130.933257 
L 208.44 168.8359 
L 215.136 191.634083 
L 221.832 272.393165 
L 228.528 259.339496 
L 235.224 300.200912 
L 241.92 320.529602 
L 248.616 313.095774 
L 255.312 252.063989 
L 262.008 291.611772 
L 268.704 296.341342 
L 275.4 288.863729 
L 282.096 310.067084 
L 288.792 301.837496 
L 295.488 326.303549 
L 302.184 283.784608 
L 308.88 83.332189 
L 315.576 91.760179 
L 322.272 68.319124 
L 328.968 289.743642 
L 335.664 199.689039 
L 342.36 249.518673 
L 349.056 232.718293 
L 355.752 329.16432 
L 362.448 286.426788 
L 369.144 305.45968 
L 375.84 260.977462 
L 382.536 256.1894 
L 389.232 285.374132 
L 395.928 273.04702 
L 402.624 306.54527 
L 409.32 257.386343 
L 416.016 313.239158 
L 422.712 285.092462 
L 429.408 306.518369 
L 436.104 254.406182 
L 442.8 273.291182 
L 449.496 298.246437 
L 456.192 310.479288 
L 462.888 290.21687 
L 469.584 281.286901 
L 476.28 324.297648 
L 482.976 380.39348 
L 489.672 331.771682 
L 496.368 283.526402 
L 503.064 274.883657 
L 509.76 299.811848 
L 516.456 290.99535 
L 523.152 317.047303 
L 529.848 287.285736 
L 536.544 278.59924 
L 543.24 244.868679 
L 549.936 297.728914 
L 556.632 275.579533 
L 563.328 288.824105 
L 570.024 316.222492 
L 576.72 367.909546 
L 583.416 307.09679 
L 590.112 273.456647 
L 596.808 282.035324 
L 603.504 343.679742 
L 610.2 296.490286 
L 616.896 336.440524 
L 623.592 285.508124 
L 630.288 317.684251 
L 636.984 358.496628 
L 643.68 394.037721 
L 650.376 336.943814 
L 657.072 306.653327 
L 663.768 288.94813 
L 670.464 311.01052 
L 677.16 314.744046 
L 683.856 274.523625 
L 690.552 349.375346 
L 697.248 302.780932 
L 703.944 227.096012 
L 710.64 239.3139 
L 717.336 287.615452 
L 724.032 359.646071 
L 730.728 381.768193 
L 737.424 330.685174 
L 744.12 303.628356 
L 750.816 345.144841 
L 757.512 260.824086 
L 764.208 199.073889 
L 770.904 287.420124 
" style="fill:none;stroke:#008000;stroke-linecap:square;stroke-width:1.75;"/>
   </g>
   <g id="line2d_3">
    <path clip-path="url(#p210285c4dc)" d="M 108 311.483854 
L 114.696 279.371575 
L 121.392 289.44837 
L 128.088 264.585439 
L 134.784 301.889188 
L 141.48 366.314623 
L 148.176 370.569449 
L 154.872 350.981396 
L 161.568 378.827517 
L 168.264 361.667621 
L 174.96 303.187322 
L 181.656 300.961601 
L 188.352 289.167045 
L 195.048 201.948613 
L 201.744 242.351604 
L 208.44 239.023087 
L 215.136 247.432164 
L 221.832 306.511967 
L 228.528 297.803853 
L 235.224 265.147909 
L 241.92 318.273254 
L 248.616 314.898789 
L 255.312 267.230658 
L 262.008 325.39956 
L 268.704 279.552915 
L 275.4 238.133184 
L 282.096 297.483533 
L 288.792 289.4712 
L 295.488 299.933021 
L 302.184 279.746532 
L 308.88 78.400052 
L 315.576 109.407816 
L 322.272 117.115706 
L 328.968 250.896173 
L 335.664 334.537383 
L 342.36 292.348829 
L 349.056 268.862723 
L 355.752 274.238045 
L 362.448 260.201584 
L 369.144 292.364537 
L 375.84 298.246778 
L 382.536 273.675094 
L 389.232 352.055437 
L 395.928 262.736263 
L 402.624 285.1229 
L 409.32 277.041976 
L 416.016 307.741482 
L 422.712 265.512772 
L 429.408 282.952768 
L 436.104 281.405577 
L 442.8 298.906372 
L 449.496 286.037027 
L 456.192 306.9575 
L 462.888 297.154673 
L 469.584 289.051158 
L 476.28 301.159824 
L 482.976 302.871762 
L 489.672 324.665923 
L 496.368 256.822647 
L 503.064 300.964607 
L 509.76 320.513932 
L 516.456 265.506932 
L 523.152 257.577943 
L 529.848 261.120119 
L 536.544 287.010648 
L 543.24 240.591346 
L 549.936 291.659188 
L 556.632 291.53095 
L 563.328 290.478642 
L 570.024 271.750936 
L 576.72 340.63313 
L 583.416 317.179314 
L 590.112 334.782539 
L 596.808 299.838511 
L 603.504 298.554238 
L 610.2 208.188394 
L 616.896 283.540637 
L 623.592 242.244128 
L 630.288 321.190804 
L 636.984 275.913105 
L 643.68 289.573171 
L 650.376 314.11785 
L 657.072 217.874724 
L 663.768 332.001596 
L 670.464 331.74801 
L 677.16 284.330202 
L 683.856 278.346874 
L 690.552 197.046391 
L 697.248 295.436451 
L 703.944 298.652011 
L 710.64 298.332429 
L 717.336 278.17581 
L 724.032 301.586848 
L 730.728 311.065867 
L 737.424 288.519942 
L 744.12 311.995063 
L 750.816 295.662838 
L 757.512 264.453344 
L 764.208 313.651498 
L 770.904 289.18658 
" style="fill:none;stroke:#ff0000;stroke-linecap:square;stroke-width:1.75;"/>
   </g>
   <g id="line2d_4">
    <path clip-path="url(#p210285c4dc)" d="M 108 273.078172 
L 114.696 307.446042 
L 121.392 270.212394 
L 128.088 306.120263 
L 134.784 248.401086 
L 141.48 338.090301 
L 148.176 299.471835 
L 154.872 324.160539 
L 161.568 348.911241 
L 168.264 298.993178 
L 174.96 284.464618 
L 181.656 304.472201 
L 188.352 245.123328 
L 195.048 229.738978 
L 201.744 245.909242 
L 208.44 307.063058 
L 215.136 287.587162 
L 221.832 265.780519 
L 228.528 279.610237 
L 235.224 236.875487 
L 241.92 202.403929 
L 248.616 280.720741 
L 255.312 222.461843 
L 262.008 309.350419 
L 268.704 291.961368 
L 275.4 283.279287 
L 282.096 163.545065 
L 288.792 287.629052 
L 295.488 284.602894 
L 302.184 276.444153 
L 308.88 103.401663 
L 315.576 128.957297 
L 322.272 123.225584 
L 328.968 252.1842 
L 335.664 286.735363 
L 342.36 268.847967 
L 349.056 280.78486 
L 355.752 330.18013 
L 362.448 303.153214 
L 369.144 339.286013 
L 375.84 283.484111 
L 382.536 260.750522 
L 389.232 220.715755 
L 395.928 281.784385 
L 402.624 266.339854 
L 409.32 151.021693 
L 416.016 278.985804 
L 422.712 249.748905 
L 429.408 285.883013 
L 436.104 347.116883 
L 442.8 324.686201 
L 449.496 318.251306 
L 456.192 316.048953 
L 462.888 270.009991 
L 469.584 278.917335 
L 476.28 251.493864 
L 482.976 290.08867 
L 489.672 293.515888 
L 496.368 385.824534 
L 503.064 326.775309 
L 509.76 310.834441 
L 516.456 334.848557 
L 523.152 370.129244 
L 529.848 297.965553 
L 536.544 307.123972 
L 543.24 320.824746 
L 549.936 272.576913 
L 556.632 285.573857 
L 563.328 298.931132 
L 570.024 319.699861 
L 576.72 319.569641 
L 583.416 262.610422 
L 590.112 243.462388 
L 596.808 263.915927 
L 603.504 284.202439 
L 610.2 285.24307 
L 616.896 248.724588 
L 623.592 257.323426 
L 630.288 302.082928 
L 636.984 316.586021 
L 643.68 405.708945 
L 650.376 320.462557 
L 657.072 313.272936 
L 663.768 294.439717 
L 670.464 301.641555 
L 677.16 359.777673 
L 683.856 261.225598 
L 690.552 333.353657 
L 697.248 303.255642 
L 703.944 270.045992 
L 710.64 288.154838 
L 717.336 288.531166 
L 724.032 285.428894 
L 730.728 265.752648 
L 737.424 311.074005 
L 744.12 236.514253 
L 750.816 298.912765 
L 757.512 298.176732 
L 764.208 282.709606 
L 770.904 209.079023 
" style="fill:none;stroke:#00bfbf;stroke-linecap:square;stroke-width:1.75;"/>
   </g>
   <g id="line2d_5">
    <path clip-path="url(#p210285c4dc)" d="M 108 287.105572 
L 114.696 273.414208 
L 121.392 229.276874 
L 128.088 356.132686 
L 134.784 239.182327 
L 141.48 286.368277 
L 148.176 233.651586 
L 154.872 274.21483 
L 161.568 272.881838 
L 168.264 294.791573 
L 174.96 281.864792 
L 181.656 271.423877 
L 188.352 376.068004 
L 195.048 448.770088 
L 201.744 322.645497 
L 208.44 430.202519 
L 215.136 355.232834 
L 221.832 301.833801 
L 228.528 297.405524 
L 235.224 265.073072 
L 241.92 237.258831 
L 248.616 302.00523 
L 255.312 279.694353 
L 262.008 236.621702 
L 268.704 287.456352 
L 275.4 270.379925 
L 282.096 198.651732 
L 288.792 289.136426 
L 295.488 275.994011 
L 302.184 319.720139 
L 308.88 64.063457 
L 315.576 84.157228 
L 322.272 123.401586 
L 328.968 277.295448 
L 335.664 179.668627 
L 342.36 291.270253 
L 349.056 234.031013 
L 355.752 292.490907 
L 362.448 177.205947 
L 369.144 310.037044 
L 375.84 267.527136 
L 382.536 306.085204 
L 389.232 252.643493 
L 395.928 309.923874 
L 402.624 282.351932 
L 409.32 251.612083 
L 416.016 340.626809 
L 422.712 354.051007 
L 429.408 317.28076 
L 436.104 294.736181 
L 442.8 242.723722 
L 449.496 246.312918 
L 456.192 196.010802 
L 462.888 303.560621 
L 469.584 325.499271 
L 476.28 221.810704 
L 482.976 245.609243 
L 489.672 289.346782 
L 496.368 414.743325 
L 503.064 448.470978 
L 509.76 341.940575 
L 516.456 339.422833 
L 523.152 330.010754 
L 529.848 294.075238 
L 536.544 267.702766 
L 543.24 301.295697 
L 549.936 292.489862 
L 556.632 287.943182 
L 563.328 291.470678 
L 570.024 304.607198 
L 576.72 323.082917 
L 583.416 293.981734 
L 590.112 381.514373 
L 596.808 305.643369 
L 603.504 285.829998 
L 610.2 292.392291 
L 616.896 281.055852 
L 623.592 290.814911 
L 630.288 291.942347 
L 636.984 327.63938 
L 643.68 359.266771 
L 650.376 248.170132 
L 657.072 252.394666 
L 663.768 296.906416 
L 670.464 301.44036 
L 677.16 215.196237 
L 683.856 209.610126 
L 690.552 289.701836 
L 697.248 217.191279 
L 703.944 185.678013 
L 710.64 208.344305 
L 717.336 287.500104 
L 724.032 337.823666 
L 730.728 303.685662 
L 737.424 376.9688 
L 744.12 268.139294 
L 750.816 380.004891 
L 757.512 289.112007 
L 764.208 224.002332 
L 770.904 176.974898 
" style="fill:none;stroke:#bf00bf;stroke-linecap:square;stroke-width:1.75;"/>
   </g>
   <g id="patch_3">
    <path d="M 108 453.6 
L 108 50.4 
" style="fill:none;stroke:#000000;stroke-linecap:square;stroke-linejoin:miter;"/>
   </g>
   <g id="patch_4">
    <path d="M 108 453.6 
L 777.6 453.6 
" style="fill:none;stroke:#000000;stroke-linecap:square;stroke-linejoin:miter;"/>
   </g>
   <g id="patch_5">
    <path d="M 108 50.4 
L 777.6 50.4 
" style="fill:none;stroke:#000000;stroke-linecap:square;stroke-linejoin:miter;"/>
   </g>
   <g id="patch_6">
    <path d="M 777.6 453.6 
L 777.6 50.4 
" style="fill:none;stroke:#000000;stroke-linecap:square;stroke-linejoin:miter;"/>
   </g>
   <g id="matplotlib.axis_1">
    <g id="xtick_1">
     <g id="line2d_6">
      <defs>
       <path d="M 0 0 
L 0 -4 
" id="m2b7edc4f7b" style="stroke:#000000;"/>
      </defs>
      <g>
       <use style="stroke:#000000;" x="108.0" xlink:href="#m2b7edc4f7b" y="453.6"/>
      </g>
     </g>
     <g id="line2d_7">
      <defs>
       <path d="M 0 0 
L 0 4 
" id="m38e3557822" style="stroke:#000000;"/>
      </defs>
      <g>
       <use style="stroke:#000000;" x="108.0" xlink:href="#m38e3557822" y="50.4"/>
      </g>
     </g>
     <g id="text_1">
      <!-- $0$ -->
      <defs>
       <path d="M 42 31.640625 
C 42 37.75 41.90625 48.125 37.703125 56.109375 
C 34 63.109375 28.09375 65.59375 22.90625 65.59375 
C 18.09375 65.59375 12 63.40625 8.203125 56.203125 
C 4.203125 48.71875 3.796875 39.4375 3.796875 31.640625 
C 3.796875 25.953125 3.90625 17.28125 7 9.671875 
C 11.296875 -0.609375 19 -2 22.90625 -2 
C 27.5 -2 34.5 -0.109375 38.59375 9.375 
C 41.59375 16.28125 42 24.359375 42 31.640625 
M 22.90625 -0.40625 
C 16.5 -0.40625 12.703125 5.078125 11.296875 12.6875 
C 10.203125 18.5625 10.203125 27.15625 10.203125 32.75 
C 10.203125 40.4375 10.203125 46.828125 11.5 52.921875 
C 13.40625 61.390625 19 64 22.90625 64 
C 27 64 32.296875 61.296875 34.203125 53.125 
C 35.5 47.4375 35.59375 40.734375 35.59375 32.75 
C 35.59375 26.25 35.59375 18.265625 34.40625 12.375 
C 32.296875 1.484375 26.40625 -0.40625 22.90625 -0.40625 
" id="CMR17-48"/>
      </defs>
      <g transform="translate(105.073504874 468.902179814)scale(0.12 -0.12)">
       <use transform="scale(0.9962640099626402)" xlink:href="#CMR17-48"/>
      </g>
     </g>
    </g>
    <g id="xtick_2">
     <g id="line2d_8">
      <g>
       <use style="stroke:#000000;" x="241.92" xlink:href="#m2b7edc4f7b" y="453.6"/>
      </g>
     </g>
     <g id="line2d_9">
      <g>
       <use style="stroke:#000000;" x="241.92" xlink:href="#m38e3557822" y="50.4"/>
      </g>
     </g>
     <g id="text_2">
      <!-- $20$ -->
      <defs>
       <path d="M 41.703125 15.453125 
L 39.90625 15.453125 
C 38.90625 8.375 38.09375 7.171875 37.703125 6.5625 
C 37.203125 5.765625 30 5.765625 28.59375 5.765625 
L 9.40625 5.765625 
C 13 9.671875 20 16.75 28.5 24.953125 
C 34.59375 30.734375 41.703125 37.53125 41.703125 47.421875 
C 41.703125 59.21875 32.296875 66 21.796875 66 
C 10.796875 66 4.09375 56.3125 4.09375 47.34375 
C 4.09375 43.4375 7 42.9375 8.203125 42.9375 
C 9.203125 42.9375 12.203125 43.546875 12.203125 47.03125 
C 12.203125 50.109375 9.59375 51 8.203125 51 
C 7.59375 51 7 50.90625 6.59375 50.703125 
C 8.5 59.21875 14.296875 63.40625 20.40625 63.40625 
C 29.09375 63.40625 34.796875 56.515625 34.796875 47.421875 
C 34.796875 38.734375 29.703125 31.25 24 24.75 
L 4.09375 2.28125 
L 4.09375 0 
L 39.296875 0 
z
" id="CMR17-50"/>
      </defs>
      <g transform="translate(236.067009749 468.902179814)scale(0.12 -0.12)">
       <use transform="scale(0.9962640099626402)" xlink:href="#CMR17-50"/>
       <use transform="translate(45.69047711706103 0.0)scale(0.9962640099626402)" xlink:href="#CMR17-48"/>
      </g>
     </g>
    </g>
    <g id="xtick_3">
     <g id="line2d_10">
      <g>
       <use style="stroke:#000000;" x="375.84" xlink:href="#m2b7edc4f7b" y="453.6"/>
      </g>
     </g>
     <g id="line2d_11">
      <g>
       <use style="stroke:#000000;" x="375.84" xlink:href="#m38e3557822" y="50.4"/>
      </g>
     </g>
     <g id="text_3">
      <!-- $40$ -->
      <defs>
       <path d="M 33.59375 64.40625 
C 33.59375 66.5 33.5 66.5 31.703125 66.5 
L 2 19.59375 
L 2 17 
L 27.796875 17 
L 27.796875 7.140625 
C 27.796875 3.5 27.59375 2.5 20.59375 2.5 
L 18.703125 2.5 
L 18.703125 0 
C 21.90625 0 27.296875 0 30.703125 0 
C 34.09375 0 39.5 0 42.703125 0 
L 42.703125 2.5 
L 40.796875 2.5 
C 33.796875 2.5 33.59375 3.5 33.59375 7.140625 
L 33.59375 17 
L 43.796875 17 
L 43.796875 19.59375 
L 33.59375 19.59375 
z
M 28.09375 57.859375 
L 28.09375 19.59375 
L 4 19.59375 
z
" id="CMR17-52"/>
      </defs>
      <g transform="translate(369.987009749 468.902179814)scale(0.12 -0.12)">
       <use transform="scale(0.9962640099626402)" xlink:href="#CMR17-52"/>
       <use transform="translate(45.69047711706103 0.0)scale(0.9962640099626402)" xlink:href="#CMR17-48"/>
      </g>
     </g>
    </g>
    <g id="xtick_4">
     <g id="line2d_12">
      <g>
       <use style="stroke:#000000;" x="509.76" xlink:href="#m2b7edc4f7b" y="453.6"/>
      </g>
     </g>
     <g id="line2d_13">
      <g>
       <use style="stroke:#000000;" x="509.76" xlink:href="#m38e3557822" y="50.4"/>
      </g>
     </g>
     <g id="text_4">
      <!-- $60$ -->
      <defs>
       <path d="M 10.59375 34 
C 10.59375 57.65625 21.796875 63 28.296875 63 
C 30.40625 63 35.5 62.640625 37.5 59 
C 35.90625 59 32.90625 59 32.90625 55.515625 
C 32.90625 52.828125 35.09375 51.921875 36.5 51.921875 
C 37.40625 51.921875 40.09375 52.3125 40.09375 55.625 
C 40.09375 61.78125 35.09375 65.296875 28.203125 65.296875 
C 16.296875 65.296875 3.796875 52.96875 3.796875 31 
C 3.796875 3.953125 15.09375 -2 23.09375 -2 
C 32.796875 -2 42 6.671875 42 20.046875 
C 42 32.515625 33.90625 41.59375 23.703125 41.59375 
C 17.59375 41.59375 13.09375 37.609375 10.59375 30.625 
z
M 23.09375 0.390625 
C 10.796875 0.390625 10.796875 18.75 10.796875 22.4375 
C 10.796875 29.625 14.203125 40 23.5 40 
C 25.203125 40 30.09375 40 33.40625 33.125 
C 35.203125 29.21875 35.203125 25.140625 35.203125 20.140625 
C 35.203125 14.75 35.203125 10.78125 33.09375 6.78125 
C 30.90625 2.671875 27.703125 0.390625 23.09375 0.390625 
" id="CMR17-54"/>
      </defs>
      <g transform="translate(503.907009749 468.902179814)scale(0.12 -0.12)">
       <use transform="scale(0.9962640099626402)" xlink:href="#CMR17-54"/>
       <use transform="translate(45.69047711706103 0.0)scale(0.9962640099626402)" xlink:href="#CMR17-48"/>
      </g>
     </g>
    </g>
    <g id="xtick_5">
     <g id="line2d_14">
      <g>
       <use style="stroke:#000000;" x="643.68" xlink:href="#m2b7edc4f7b" y="453.6"/>
      </g>
     </g>
     <g id="line2d_15">
      <g>
       <use style="stroke:#000000;" x="643.68" xlink:href="#m38e3557822" y="50.4"/>
      </g>
     </g>
     <g id="text_5">
      <!-- $80$ -->
      <defs>
       <path d="M 27.203125 35.375 
C 33.5 38.546875 39.90625 43.328125 39.90625 50.984375 
C 39.90625 60.015625 31.09375 65.296875 23 65.296875 
C 13.90625 65.296875 5.90625 58.734375 5.90625 49.6875 
C 5.90625 47.203125 6.5 42.921875 10.40625 39.140625 
C 11.40625 38.15625 15.59375 35.171875 18.296875 33.28125 
C 13.796875 30.984375 3.296875 25.53125 3.296875 14.59375 
C 3.296875 4.359375 13.09375 -2 22.796875 -2 
C 33.5 -2 42.5 5.65625 42.5 15.78125 
C 42.5 24.84375 36.40625 29.015625 32.40625 31.703125 
z
M 14.09375 44.09375 
C 13.296875 44.59375 9.296875 47.671875 9.296875 52.359375 
C 9.296875 58.421875 15.59375 63 22.796875 63 
C 30.703125 63 36.5 57.4375 36.5 50.96875 
C 36.5 41.703125 26.09375 36.421875 25.59375 36.421875 
C 25.5 36.421875 25.40625 36.421875 24.59375 37.03125 
z
M 32.5 23.734375 
C 34 22.640625 38.796875 19.375 38.796875 13.296875 
C 38.796875 5.953125 31.40625 0.390625 23 0.390625 
C 13.90625 0.390625 7 6.84375 7 14.6875 
C 7 22.546875 13.09375 29.09375 20 32.1875 
z
" id="CMR17-56"/>
      </defs>
      <g transform="translate(637.827009749 468.902179814)scale(0.12 -0.12)">
       <use transform="scale(0.9962640099626402)" xlink:href="#CMR17-56"/>
       <use transform="translate(45.69047711706103 0.0)scale(0.9962640099626402)" xlink:href="#CMR17-48"/>
      </g>
     </g>
    </g>
    <g id="xtick_6">
     <g id="line2d_16">
      <g>
       <use style="stroke:#000000;" x="777.6" xlink:href="#m2b7edc4f7b" y="453.6"/>
      </g>
     </g>
     <g id="line2d_17">
      <g>
       <use style="stroke:#000000;" x="777.6" xlink:href="#m38e3557822" y="50.4"/>
      </g>
     </g>
     <g id="text_6">
      <!-- $100$ -->
      <defs>
       <path d="M 26.59375 63.40625 
C 26.59375 65.5 26.5 65.5 25.09375 65.5 
C 21.203125 61.1875 15.296875 59.796875 9.703125 59.796875 
C 9.40625 59.796875 8.90625 59.796875 8.796875 59.5 
C 8.703125 59.296875 8.703125 59.09375 8.703125 57 
C 11.796875 57 17 57.59375 21 59.984375 
L 21 7.203125 
C 21 3.6875 20.796875 2.5 12.203125 2.5 
L 9.203125 2.5 
L 9.203125 0 
C 14 0 19 0 23.796875 0 
C 28.59375 0 33.59375 0 38.40625 0 
L 38.40625 2.5 
L 35.40625 2.5 
C 26.796875 2.5 26.59375 3.59375 26.59375 7.15625 
z
" id="CMR17-49"/>
      </defs>
      <g transform="translate(768.820514623 468.902179814)scale(0.12 -0.12)">
       <use transform="scale(0.9962640099626402)" xlink:href="#CMR17-49"/>
       <use transform="translate(45.69047711706103 0.0)scale(0.9962640099626402)" xlink:href="#CMR17-48"/>
       <use transform="translate(91.38095423412206 0.0)scale(0.9962640099626402)" xlink:href="#CMR17-48"/>
      </g>
     </g>
    </g>
    <g id="text_7">
     <!-- Index -->
     <defs>
      <path d="M 29.203125 67.59375 
L 29.203125 65 
C 35.09375 65 36 64.40625 36 59.6875 
L 36 36.640625 
C 35.59375 37.140625 31.5 43.59375 23.40625 43.59375 
C 13.203125 43.59375 3.296875 34.5 3.296875 21.3125 
C 3.296875 8.203125 12.59375 -1 22.40625 -1 
C 30.90625 -1 35.296875 5.265625 35.796875 5.9375 
L 35.796875 -0.984375 
L 47.90625 -0.984375 
L 47.90625 2 
C 42 2 41.09375 2.59375 41.09375 7.390625 
L 41.09375 68.6875 
z
M 35.796875 11.796875 
C 35.796875 8.796875 34 6.09375 31.703125 4.09375 
C 28.296875 1.09375 24.90625 0.59375 23 0.59375 
C 20.09375 0.59375 9.703125 2.09375 9.703125 21.1875 
C 9.703125 40.8125 21.296875 42 23.90625 42 
C 28.5 42 32.203125 39.40625 34.5 35.796875 
C 35.796875 33.703125 35.796875 33.40625 35.796875 31.609375 
z
" id="CMR17-100"/>
      <path d="M 26 23.078125 
C 29 26.96875 32.40625 31.34375 35.203125 34.625 
C 38.5 38.40625 42.296875 40 46.703125 40 
L 46.703125 42.59375 
C 45 42.59375 41.5 42.59375 39.703125 42.59375 
C 37 42.59375 33.90625 42.59375 31.59375 42.6875 
L 31.59375 40.09375 
C 33 39.890625 33.796875 38.890625 33.796875 37.5 
C 33.796875 35.703125 32.796875 34.609375 32.296875 33.921875 
L 24.90625 24.578125 
L 16.09375 36.03125 
C 15.203125 37.125 15.203125 37.3125 15.203125 37.8125 
C 15.203125 39.015625 16.203125 40 17.90625 40 
L 17.90625 42.6875 
C 15.5 42.59375 11.203125 42.59375 8.703125 42.59375 
C 6 42.59375 2.796875 42.59375 0.59375 42.6875 
L 0.59375 40 
C 6 40 7.203125 39.59375 9.59375 36.609375 
L 21.09375 21.796875 
C 21.296875 21.59375 21.796875 21 21.796875 20.703125 
C 21.796875 20.296875 13.09375 9.671875 12 8.28125 
C 7.5 2.890625 2.796875 2.5 0.09375 2.5 
L 0.09375 0 
C 1.796875 0 5.296875 0 7.09375 0 
C 9.09375 0 13.5 0 15.296875 -0.09375 
L 15.296875 2.5 
C 14.703125 2.59375 13.09375 2.796875 13.09375 5.078125 
C 13.09375 6.875 13.90625 7.96875 14.796875 9.15625 
L 23.09375 19.3125 
L 31.796875 8 
C 32.59375 6.90625 33.796875 5.40625 33.796875 4.703125 
C 33.796875 3.296875 32.59375 2.5 31 2.5 
L 31 -0.09375 
C 33.40625 0 37.703125 0 40.203125 0 
C 42.90625 0 46.09375 0 48.296875 -0.09375 
L 48.296875 2.5 
C 43.296875 2.5 41.796875 2.6875 39.40625 5.78125 
z
" id="CMR17-120"/>
      <path d="M 41.5 30.203125 
C 41.5 35.296875 40.5 43.59375 28.703125 43.59375 
C 20.796875 43.59375 16.703125 37.5 15.203125 33.5 
L 15.09375 33.5 
L 15.09375 43.59375 
L 3.296875 42.5 
L 3.296875 39.90625 
C 9.203125 39.90625 10.09375 39.296875 10.09375 34.5 
L 10.09375 6.6875 
C 10.09375 2.875 9.703125 2.390625 3.296875 2.390625 
L 3.296875 -0.203125 
C 5.703125 0 10.09375 0 12.703125 0 
C 15.296875 0 19.796875 0 22.203125 -0.203125 
L 22.203125 2.390625 
C 15.796875 2.390625 15.40625 2.78125 15.40625 6.6875 
L 15.40625 25.90625 
C 15.40625 35.109375 21 42 28 42 
C 35.40625 42 36.203125 35.40625 36.203125 30.59375 
L 36.203125 6.6875 
C 36.203125 2.875 35.796875 2.390625 29.40625 2.390625 
L 29.40625 -0.203125 
C 31.796875 0 36.203125 0 38.796875 0 
C 41.40625 0 45.90625 0 48.296875 -0.203125 
L 48.296875 2.390625 
C 41.90625 2.390625 41.5 2.78125 41.5 6.6875 
z
" id="CMR17-110"/>
      <path d="M 19.703125 61.015625 
C 19.703125 65.5 20.90625 65.5 28.09375 65.5 
L 28.09375 68 
C 24.90625 68 19.796875 68 16.40625 68 
C 13 68 7.90625 68 4.703125 68 
L 4.703125 65.5 
C 11.90625 65.5 13.09375 65.5 13.09375 61.015625 
L 13.09375 6.984375 
C 13.09375 2.5 11.90625 2.5 4.703125 2.5 
L 4.703125 0 
C 7.90625 0 13 0 16.40625 0 
C 19.796875 0 24.90625 0 28.09375 0 
L 28.09375 2.5 
C 20.90625 2.5 19.703125 2.5 19.703125 6.984375 
z
" id="CMR17-73"/>
      <path d="M 38.09375 23 
C 38.5 23.40625 38.5 23.609375 38.5 24.625 
C 38.5 34.96875 33.09375 44 21.703125 44 
C 11.09375 44 2.703125 33.890625 2.703125 21.609375 
C 2.703125 8.609375 12.203125 -1 22.796875 -1 
C 34 -1 38.40625 9.484375 38.40625 11.5625 
C 38.40625 12.25 37.796875 12.25 37.59375 12.25 
C 36.90625 12.25 36.796875 12.046875 36.40625 10.875 
C 34.203125 4.140625 28.703125 0.796875 23.5 0.796875 
C 19.203125 0.796875 14.90625 3.171875 12.203125 7.5 
C 9.09375 12.546875 9.09375 18.375 9.09375 23 
z
M 9.203125 24.5 
C 9.90625 39.140625 17.59375 42.40625 21.59375 42.40625 
C 28.40625 42.40625 33 35.890625 33.09375 24.5 
z
" id="CMR17-101"/>
     </defs>
     <g transform="translate(422.711323443 488.680075693)scale(0.18 -0.18)">
      <use transform="scale(0.9962640099626402)" xlink:href="#CMR17-73"/>
      <use transform="translate(32.6384091882005 0.0)scale(0.9962640099626402)" xlink:href="#CMR17-110"/>
      <use transform="translate(83.53377896851651 0.0)scale(0.9962640099626402)" xlink:href="#CMR17-100"/>
      <use transform="translate(134.42914874883252 0.0)scale(0.9962640099626402)" xlink:href="#CMR17-101"/>
      <use transform="translate(174.91480921155045 0.0)scale(0.9962640099626402)" xlink:href="#CMR17-120"/>
     </g>
    </g>
   </g>
   <g id="matplotlib.axis_2">
    <g id="ytick_1">
     <g id="line2d_18">
      <defs>
       <path d="M 0 0 
L 4 0 
" id="m2627f556f3" style="stroke:#000000;"/>
      </defs>
      <g>
       <use style="stroke:#000000;" x="108.0" xlink:href="#m2627f556f3" y="453.6"/>
      </g>
     </g>
     <g id="line2d_19">
      <defs>
       <path d="M 0 0 
L -4 0 
" id="mf23c12d653" style="stroke:#000000;"/>
      </defs>
      <g>
       <use style="stroke:#000000;" x="777.6" xlink:href="#mf23c12d653" y="453.6"/>
      </g>
     </g>
     <g id="text_8">
      <!-- $-0.4$ -->
      <defs>
       <path d="M 65.90625 23 
C 67.59375 23 69.40625 23 69.40625 25 
C 69.40625 27 67.59375 27 65.90625 27 
L 11.796875 27 
C 10.09375 27 8.296875 27 8.296875 25 
C 8.296875 23 10.09375 23 11.796875 23 
z
" id="CMSY10-0"/>
       <path d="M 18.40625 4.796875 
C 18.40625 7.6875 16 9.671875 13.59375 9.671875 
C 10.703125 9.671875 8.703125 7.28125 8.703125 4.890625 
C 8.703125 2 11.09375 0 13.5 0 
C 16.40625 0 18.40625 2.390625 18.40625 4.796875 
" id="CMMI12-58"/>
      </defs>
      <g transform="translate(76.7438688171 456.58879203)scale(0.12 -0.12)">
       <use transform="scale(0.9962640099626402)" xlink:href="#CMSY10-0"/>
       <use transform="translate(77.4874676506071 0.0)scale(0.9962640099626402)" xlink:href="#CMR17-48"/>
       <use transform="translate(123.17794476766814 0.0)scale(0.9962640099626402)" xlink:href="#CMMI12-58"/>
       <use transform="translate(150.27512185748756 0.0)scale(0.9962640099626402)" xlink:href="#CMR17-52"/>
      </g>
     </g>
    </g>
    <g id="ytick_2">
     <g id="line2d_20">
      <g>
       <use style="stroke:#000000;" x="108.0" xlink:href="#m2627f556f3" y="372.96"/>
      </g>
     </g>
     <g id="line2d_21">
      <g>
       <use style="stroke:#000000;" x="777.6" xlink:href="#mf23c12d653" y="372.96"/>
      </g>
     </g>
     <g id="text_9">
      <!-- $-0.2$ -->
      <g transform="translate(76.7438688171 375.94879203)scale(0.12 -0.12)">
       <use transform="scale(0.9962640099626402)" xlink:href="#CMSY10-0"/>
       <use transform="translate(77.4874676506071 0.0)scale(0.9962640099626402)" xlink:href="#CMR17-48"/>
       <use transform="translate(123.17794476766814 0.0)scale(0.9962640099626402)" xlink:href="#CMMI12-58"/>
       <use transform="translate(150.27512185748756 0.0)scale(0.9962640099626402)" xlink:href="#CMR17-50"/>
      </g>
     </g>
    </g>
    <g id="ytick_3">
     <g id="line2d_22">
      <g>
       <use style="stroke:#000000;" x="108.0" xlink:href="#m2627f556f3" y="292.32"/>
      </g>
     </g>
     <g id="line2d_23">
      <g>
       <use style="stroke:#000000;" x="777.6" xlink:href="#mf23c12d653" y="292.32"/>
      </g>
     </g>
     <g id="text_10">
      <!-- $0.0$ -->
      <g transform="translate(86.0423582464 295.30879203)scale(0.12 -0.12)">
       <use transform="scale(0.9962640099626402)" xlink:href="#CMR17-48"/>
       <use transform="translate(45.69047711706103 0.0)scale(0.9962640099626402)" xlink:href="#CMMI12-58"/>
       <use transform="translate(72.78765420688046 0.0)scale(0.9962640099626402)" xlink:href="#CMR17-48"/>
      </g>
     </g>
    </g>
    <g id="ytick_4">
     <g id="line2d_24">
      <g>
       <use style="stroke:#000000;" x="108.0" xlink:href="#m2627f556f3" y="211.68"/>
      </g>
     </g>
     <g id="line2d_25">
      <g>
       <use style="stroke:#000000;" x="777.6" xlink:href="#mf23c12d653" y="211.68"/>
      </g>
     </g>
     <g id="text_11">
      <!-- $0.2$ -->
      <g transform="translate(86.0423582464 214.66879203)scale(0.12 -0.12)">
       <use transform="scale(0.9962640099626402)" xlink:href="#CMR17-48"/>
       <use transform="translate(45.69047711706103 0.0)scale(0.9962640099626402)" xlink:href="#CMMI12-58"/>
       <use transform="translate(72.78765420688046 0.0)scale(0.9962640099626402)" xlink:href="#CMR17-50"/>
      </g>
     </g>
    </g>
    <g id="ytick_5">
     <g id="line2d_26">
      <g>
       <use style="stroke:#000000;" x="108.0" xlink:href="#m2627f556f3" y="131.04"/>
      </g>
     </g>
     <g id="line2d_27">
      <g>
       <use style="stroke:#000000;" x="777.6" xlink:href="#mf23c12d653" y="131.04"/>
      </g>
     </g>
     <g id="text_12">
      <!-- $0.4$ -->
      <g transform="translate(86.0423582464 134.02879203)scale(0.12 -0.12)">
       <use transform="scale(0.9962640099626402)" xlink:href="#CMR17-48"/>
       <use transform="translate(45.69047711706103 0.0)scale(0.9962640099626402)" xlink:href="#CMMI12-58"/>
       <use transform="translate(72.78765420688046 0.0)scale(0.9962640099626402)" xlink:href="#CMR17-52"/>
      </g>
     </g>
    </g>
    <g id="ytick_6">
     <g id="line2d_28">
      <g>
       <use style="stroke:#000000;" x="108.0" xlink:href="#m2627f556f3" y="50.4"/>
      </g>
     </g>
     <g id="line2d_29">
      <g>
       <use style="stroke:#000000;" x="777.6" xlink:href="#mf23c12d653" y="50.4"/>
      </g>
     </g>
     <g id="text_13">
      <!-- $0.6$ -->
      <g transform="translate(86.0423582464 53.3887920299)scale(0.12 -0.12)">
       <use transform="scale(0.9962640099626402)" xlink:href="#CMR17-48"/>
       <use transform="translate(45.69047711706103 0.0)scale(0.9962640099626402)" xlink:href="#CMMI12-58"/>
       <use transform="translate(72.78765420688046 0.0)scale(0.9962640099626402)" xlink:href="#CMR17-54"/>
      </g>
     </g>
    </g>
    <g id="text_14">
     <!-- Reconstruction error -->
     <defs>
      <path d="M 15 23.390625 
C 15 33 19.09375 42 26.59375 42 
C 27.296875 42 28 41.90625 28.703125 41.59375 
C 28.703125 41.59375 26.5 40.890625 26.5 38.3125 
C 26.5 35.90625 28.40625 34.90625 29.90625 34.90625 
C 31.09375 34.90625 33.296875 35.609375 33.296875 38.40625 
C 33.296875 41.609375 30.09375 43.59375 26.703125 43.59375 
C 19.09375 43.59375 15.796875 36.203125 14.796875 32.703125 
L 14.703125 32.703125 
L 14.703125 43.59375 
L 3.09375 42.5 
L 3.09375 39.90625 
C 9 39.90625 9.90625 39.296875 9.90625 34.5 
L 9.90625 6.6875 
C 9.90625 2.875 9.5 2.390625 3.09375 2.390625 
L 3.09375 -0.203125 
C 5.5 0 10.09375 0 12.703125 0 
C 15.59375 0 20.703125 0 23.40625 -0.203125 
L 23.40625 2.390625 
C 16.203125 2.390625 15 2.390625 15 6.875 
z
" id="CMR17-114"/>
      <path d="M 30.90625 42.140625 
C 30.90625 43.953125 30.796875 44.046875 30.203125 44.046875 
C 29.796875 44.046875 29.703125 43.953125 28.5 42.453125 
C 28.203125 42.046875 27.296875 41.03125 27 40.640625 
C 23.796875 44.046875 19.296875 44.046875 17.59375 44.046875 
C 6.5 44.046875 2.5 38.234375 2.5 32.4375 
C 2.5 23.40625 12.703125 21.328125 15.59375 20.703125 
C 21.90625 19.421875 24.09375 19.015625 26.203125 17.203125 
C 27.5 16.015625 29.703125 13.8125 29.703125 10.21875 
C 29.703125 6 27.296875 0.59375 18.09375 0.59375 
C 9.40625 0.59375 6.296875 7.1875 4.5 15.953125 
C 4.203125 17.34375 4.203125 17.453125 3.40625 17.453125 
C 2.59375 17.453125 2.5 17.34375 2.5 15.359375 
L 2.5 0.984375 
C 2.5 -0.796875 2.59375 -0.90625 3.203125 -0.90625 
C 3.703125 -0.90625 3.796875 -0.796875 4.296875 0 
C 4.90625 0.890625 6.40625 3.296875 7 4.3125 
C 9 1.609375 12.5 -1 18.09375 -1 
C 28 -1 33.296875 4.421875 33.296875 12.25 
C 33.296875 17.375 30.59375 20.078125 29.296875 21.28125 
C 26.296875 24.390625 22.796875 25.09375 18.59375 25.890625 
C 13.09375 27.109375 6.09375 28.515625 6.09375 34.640625 
C 6.09375 37.234375 7.5 42.765625 17.59375 42.765625 
C 28.296875 42.765625 28.90625 32.71875 29.09375 29.5 
C 29.203125 29 29.703125 28.890625 30 28.890625 
C 30.90625 28.890625 30.90625 29.203125 30.90625 30.90625 
z
" id="CMR17-115"/>
      <path d="M 29.40625 42.078125 
L 29.40625 39.5 
C 35.296875 39.5 36.203125 38.890625 36.203125 34.15625 
L 36.203125 16.125 
C 36.203125 7.8125 31.703125 0.59375 24.296875 0.59375 
C 16.09375 0.59375 15.40625 5.4375 15.40625 10.59375 
L 15.40625 43.171875 
L 3.296875 42.078125 
L 3.296875 39.5 
C 7.296875 39.5 10 39.5 10.09375 35.53125 
L 10.09375 16.53125 
C 10.09375 9.890625 10.09375 5.640625 12.703125 2.859375 
C 14 1.578125 16.5 -1 23.703125 -1 
C 32.203125 -1 35.5 5.890625 36.296875 7.90625 
L 36.40625 7.90625 
L 36.40625 -0.984375 
L 48.296875 -0.984375 
L 48.296875 2 
C 42.40625 2 41.5 2.59375 41.5 7.390625 
L 41.5 43.171875 
z
" id="CMR17-117"/>
      <path d="M 43.09375 21.1875 
C 43.09375 34 33.796875 44 22.90625 44 
C 12 44 2.703125 34 2.703125 21.1875 
C 2.703125 8.609375 12 -1 22.90625 -1 
C 33.796875 -1 43.09375 8.609375 43.09375 21.1875 
M 22.90625 0.796875 
C 18.203125 0.796875 14.203125 3.59375 11.90625 7.5 
C 9.40625 11.984375 9.09375 17.59375 9.09375 22 
C 9.09375 26.203125 9.296875 31.40625 11.90625 35.90625 
C 13.90625 39.203125 17.796875 42.40625 22.90625 42.40625 
C 27.40625 42.40625 31.203125 39.90625 33.59375 36.40625 
C 36.703125 31.703125 36.703125 25.109375 36.703125 22 
C 36.703125 18.09375 36.5 12.109375 33.796875 7.296875 
C 31 2.703125 26.703125 0.796875 22.90625 0.796875 
" id="CMR17-111"/>
      <path d="M 34.90625 35 
C 33 35 30.203125 35 30.203125 31.515625 
C 30.203125 28.71875 32.5 27.921875 33.796875 27.921875 
C 34.5 27.921875 37.40625 28.234375 37.40625 31.625 
C 37.40625 38.546875 30.59375 43.796875 22.90625 43.796875 
C 12.296875 43.796875 3.296875 34.03125 3.296875 21.296875 
C 3.296875 8.0625 12.703125 -1 22.90625 -1 
C 35.296875 -1 38.40625 10.578125 38.40625 11.6875 
C 38.40625 12.09375 38.296875 12.390625 37.59375 12.390625 
C 36.90625 12.390625 36.796875 12.296875 36.40625 10.984375 
C 33.796875 2.8125 28.09375 0.796875 23.796875 0.796875 
C 17.40625 0.796875 9.703125 6.671875 9.703125 21.390625 
C 9.703125 36.53125 17.09375 42 23 42 
C 26.90625 42 32.703125 40.203125 34.90625 35 
" id="CMR17-99"/>
      <path d="M 15.5 61.078125 
C 15.5 63.265625 13.703125 65.15625 11.40625 65.15625 
C 9.203125 65.15625 7.296875 63.375 7.296875 61.078125 
C 7.296875 58.890625 9.09375 57 11.40625 57 
C 13.59375 57 15.5 58.796875 15.5 61.078125 
M 3.796875 42.28125 
L 3.796875 39.703125 
C 9.40625 39.703125 10.203125 39.09375 10.203125 34.328125 
L 10.203125 6.671875 
C 10.203125 2.875 9.796875 2.390625 3.40625 2.390625 
L 3.40625 -0.203125 
C 5.796875 0 10.09375 0 12.59375 0 
C 15 0 19.09375 0 21.40625 -0.203125 
L 21.40625 2.390625 
C 15.5 2.390625 15.296875 2.984375 15.296875 6.5625 
L 15.296875 43.375 
z
" id="CMR17-105"/>
      <path d="M 15.09375 40 
L 29.09375 40 
L 29.09375 42.578125 
L 15.09375 42.578125 
L 15.09375 61 
L 13.296875 61 
C 13.09375 50.703125 9.59375 41.6875 1.09375 41.6875 
L 1.09375 40 
L 9.796875 40 
L 9.796875 12.046875 
C 9.796875 10.15625 9.796875 -1 21.40625 -1 
C 27.296875 -1 30.703125 4.78125 30.703125 12.140625 
L 30.703125 17.8125 
L 28.90625 17.8125 
L 28.90625 12.234375 
C 28.90625 5.375 26.203125 0.796875 22 0.796875 
C 19.09375 0.796875 15.09375 2.78125 15.09375 11.84375 
z
" id="CMR17-116"/>
      <path d="M 39.203125 33.53125 
C 48.703125 35.4375 56.703125 41.8125 56.703125 49.78125 
C 56.703125 59.140625 46.09375 67.59375 32.09375 67.59375 
L 5.203125 67.59375 
L 5.203125 65 
C 12.09375 65 13.203125 65 13.203125 60.515625 
L 13.203125 6.484375 
C 13.203125 2 12.09375 2 5.203125 2 
L 5.203125 -0.40625 
C 8.09375 -0.40625 13.296875 -0.40625 16.40625 -0.40625 
C 19.5 -0.40625 24.703125 -0.40625 27.59375 -0.40625 
L 27.59375 2 
C 20.703125 2 19.59375 2 19.59375 6.515625 
L 19.59375 33 
L 31.296875 33 
C 37 33 40.203125 30.6875 41.59375 29.390625 
C 45.59375 25.5 45.59375 22.796875 45.59375 16 
C 45.59375 9.296875 45.59375 5.890625 48.59375 2.5 
C 52.40625 -1.59375 57.5 -2 59.703125 -2 
C 67.09375 -2 68.203125 6.1875 68.203125 7.859375 
C 68.203125 8.4375 68.203125 9.140625 67.296875 9.140625 
C 66.5 9.140625 66.40625 8.546875 66.40625 8.15625 
C 65.90625 1.75 63 -0.40625 59.90625 -0.40625 
C 54.40625 -0.40625 53.796875 5.859375 53.203125 11.9375 
C 52.90625 14.03125 52.703125 15.515625 52.5 17.703125 
C 51.90625 22.6875 51.09375 29.953125 39.203125 33.53125 
M 31 34.59375 
L 19.59375 34.59375 
L 19.59375 61.140625 
C 19.59375 64.515625 19.796875 65 23.796875 65 
L 31.09375 65 
C 39.40625 65 49.09375 62.140625 49.09375 49.84375 
C 49.09375 37.0625 38.5 34.59375 31 34.59375 
" id="CMR17-82"/>
     </defs>
     <g transform="translate(68.2558046486 325.973127201)rotate(-90.0)scale(0.18 -0.18)">
      <use transform="scale(0.9962640099626402)" xlink:href="#CMR17-82"/>
      <use transform="translate(67.79110197112392 0.0)scale(0.9962640099626402)" xlink:href="#CMR17-101"/>
      <use transform="translate(108.27676243384185 0.0)scale(0.9962640099626402)" xlink:href="#CMR17-99"/>
      <use transform="translate(148.7624228965598 0.0)scale(0.9962640099626402)" xlink:href="#CMR17-111"/>
      <use transform="translate(194.45290001362082 0.0)scale(0.9962640099626402)" xlink:href="#CMR17-110"/>
      <use transform="translate(245.34826979393682 0.0)scale(0.9962640099626402)" xlink:href="#CMR17-115"/>
      <use transform="translate(281.1496074291719 0.0)scale(0.9962640099626402)" xlink:href="#CMR17-116"/>
      <use transform="translate(316.43037522863483 0.0)scale(0.9962640099626402)" xlink:href="#CMR17-114"/>
      <use transform="translate(351.7111430280978 0.0)scale(0.9962640099626402)" xlink:href="#CMR17-117"/>
      <use transform="translate(402.6065128084138 0.0)scale(0.9962640099626402)" xlink:href="#CMR17-99"/>
      <use transform="translate(443.09217327113174 0.0)scale(0.9962640099626402)" xlink:href="#CMR17-116"/>
      <use transform="translate(478.37294107059466 0.0)scale(0.9962640099626402)" xlink:href="#CMR17-105"/>
      <use transform="translate(503.24399955245957 0.0)scale(0.9962640099626402)" xlink:href="#CMR17-111"/>
      <use transform="translate(548.9344766695206 0.0)scale(0.9962640099626402)" xlink:href="#CMR17-110"/>
      <use transform="translate(629.9058127967388 0.0)scale(0.9962640099626402)" xlink:href="#CMR17-101"/>
      <use transform="translate(670.3914732594568 0.0)scale(0.9962640099626402)" xlink:href="#CMR17-114"/>
      <use transform="translate(705.6722410589198 0.0)scale(0.9962640099626402)" xlink:href="#CMR17-114"/>
      <use transform="translate(740.9530088583826 0.0)scale(0.9962640099626402)" xlink:href="#CMR17-111"/>
      <use transform="translate(786.6434859754437 0.0)scale(0.9962640099626402)" xlink:href="#CMR17-114"/>
     </g>
    </g>
   </g>
   <g id="text_15">
    <!-- Reconstruction error in each dimension of outliers in [30,31,32] -->
    <defs>
     <path d="M 36 25.828125 
C 36 32.375 36 35.84375 31.796875 39.734375 
C 28.09375 43 23.796875 44 20.40625 44 
C 12.5 44 6.796875 37.609375 6.796875 30.796875 
C 6.796875 27 9.796875 27 10.40625 27 
C 11.703125 27 14 27.78125 14 30.53125 
C 14 33 12.09375 34.078125 10.40625 34.078125 
C 10 34.078125 9.5 33.96875 9.203125 33.875 
C 11.296875 40.5 16.703125 42.40625 20.203125 42.40625 
C 25.203125 42.40625 30.703125 37.953125 30.703125 29.453125 
L 30.703125 25 
C 24.796875 25 17.703125 24.203125 12.09375 21.203125 
C 5.796875 17.703125 4 12.703125 4 8.90625 
C 4 1.203125 13 -1 18.296875 -1 
C 23.796875 -1 28.90625 2.171875 31.09375 7.984375 
C 31.296875 3.640625 34.09375 -0.28125 38.5 -0.28125 
C 40.59375 -0.28125 45.90625 1.09375 45.90625 8.859375 
L 45.90625 14.375 
L 44.09375 14.375 
L 44.09375 8.78125 
C 44.09375 2.78125 41.40625 2 40.09375 2 
C 36 2 36 7.15625 36 11.53125 
z
M 30.703125 13.59375 
C 30.703125 4.953125 24.5 0.59375 19 0.59375 
C 14 0.59375 10.09375 4.296875 10.09375 8.90625 
C 10.09375 11.890625 11.40625 17.1875 17.203125 20.390625 
C 22 23.09375 27.5 23.5 30.703125 23.5 
z
" id="CMR17-97"/>
     <path d="M 67.59375 30.203125 
C 67.59375 35.1875 66.703125 43.59375 54.796875 43.59375 
C 48 43.59375 43.296875 39 41.5 33.609375 
L 41.40625 33.609375 
C 40.203125 41.8125 34.296875 43.59375 28.703125 43.59375 
C 20.796875 43.59375 16.703125 37.5 15.203125 33.5 
L 15.09375 33.5 
L 15.09375 43.59375 
L 3.296875 42.5 
L 3.296875 39.90625 
C 9.203125 39.90625 10.09375 39.296875 10.09375 34.5 
L 10.09375 6.6875 
C 10.09375 2.875 9.703125 2.390625 3.296875 2.390625 
L 3.296875 -0.203125 
C 5.703125 0 10.09375 0 12.703125 0 
C 15.296875 0 19.796875 0 22.203125 -0.203125 
L 22.203125 2.390625 
C 15.796875 2.390625 15.40625 2.78125 15.40625 6.6875 
L 15.40625 25.90625 
C 15.40625 35.109375 21 42 28 42 
C 35.40625 42 36.203125 35.40625 36.203125 30.59375 
L 36.203125 6.6875 
C 36.203125 2.875 35.796875 2.390625 29.40625 2.390625 
L 29.40625 -0.203125 
C 31.796875 0 36.203125 0 38.796875 0 
C 41.40625 0 45.90625 0 48.296875 -0.203125 
L 48.296875 2.390625 
C 41.90625 2.390625 41.5 2.78125 41.5 6.6875 
L 41.5 25.90625 
C 41.5 35.109375 47.09375 42 54.09375 42 
C 61.5 42 62.296875 35.40625 62.296875 30.59375 
L 62.296875 6.6875 
C 62.296875 2.875 61.90625 2.390625 55.5 2.390625 
L 55.5 -0.203125 
C 57.90625 0 62.296875 0 64.90625 0 
C 67.5 0 72 0 74.40625 -0.203125 
L 74.40625 2.390625 
C 68 2.390625 67.59375 2.78125 67.59375 6.6875 
z
" id="CMR17-109"/>
     <path d="M 23.5 -25 
L 23.5 -21.515625 
L 14.09375 -21.515625 
L 14.09375 71 
L 23.5 71 
L 23.5 74.484375 
L 10.59375 74.484375 
L 10.59375 -25 
z
" id="CMR17-91"/>
     <path d="M 22.09375 33.703125 
C 31 33.703125 34.90625 25.96875 34.90625 17.03125 
C 34.90625 5 28.5 0.390625 22.703125 0.390625 
C 17.40625 0.390625 8.796875 3.03125 6.09375 10.828125 
C 6.59375 10.625 7.09375 10.625 7.59375 10.625 
C 10 10.625 11.796875 12.21875 11.796875 14.8125 
C 11.796875 17.703125 9.59375 19 7.59375 19 
C 5.90625 19 3.296875 18.203125 3.296875 14.46875 
C 3.296875 5.234375 12.296875 -2 22.90625 -2 
C 34 -2 42.5 6.71875 42.5 16.953125 
C 42.5 26.671875 34.5 33.6875 25 34.796875 
C 32.59375 36.375 39.90625 43.0625 39.90625 52.015625 
C 39.90625 59.6875 32 65.296875 23 65.296875 
C 13.90625 65.296875 5.90625 59.828125 5.90625 52.015625 
C 5.90625 48.59375 8.5 48 9.796875 48 
C 11.90625 48 13.703125 49.296875 13.703125 51.890625 
C 13.703125 54.46875 11.90625 55.765625 9.796875 55.765625 
C 9.40625 55.765625 8.90625 55.765625 8.5 55.578125 
C 11.40625 61.859375 19.296875 63 22.796875 63 
C 26.296875 63 32.90625 61.328125 32.90625 51.875 
C 32.90625 49.109375 32.5 44.1875 29.09375 39.84375 
C 26.09375 36 22.703125 36 19.40625 35.6875 
C 18.90625 35.6875 16.59375 35.453125 16.203125 35.453125 
C 15.5 35.359375 15.09375 35.265625 15.09375 34.5 
C 15.09375 33.796875 15.203125 33.703125 17.203125 33.703125 
z
" id="CMR17-51"/>
     <path d="M 15.296875 68.6875 
L 3.40625 67.59375 
L 3.40625 65 
C 9.296875 65 10.203125 64.40625 10.203125 59.640625 
L 10.203125 6.65625 
C 10.203125 2.875 9.796875 2.390625 3.40625 2.390625 
L 3.40625 -0.203125 
C 5.796875 0 10.203125 0 12.703125 0 
C 15.296875 0 19.703125 0 22.09375 -0.203125 
L 22.09375 2.390625 
C 15.703125 2.390625 15.296875 2.78125 15.296875 6.65625 
z
" id="CMR17-108"/>
     <path d="M 41.5 30.203125 
C 41.5 35.296875 40.5 43.59375 28.703125 43.59375 
C 20.5 43.59375 16.5 37 15.296875 33.703125 
L 15.203125 33.703125 
L 15.203125 68.6875 
L 3.296875 67.59375 
L 3.296875 65 
C 9.203125 65 10.09375 64.40625 10.09375 59.640625 
L 10.09375 6.65625 
C 10.09375 2.875 9.703125 2.390625 3.296875 2.390625 
L 3.296875 -0.203125 
C 5.703125 0 10.09375 0 12.703125 0 
C 15.296875 0 19.796875 0 22.203125 -0.203125 
L 22.203125 2.390625 
C 15.796875 2.390625 15.40625 2.78125 15.40625 6.6875 
L 15.40625 25.90625 
C 15.40625 35.109375 21 42 28 42 
C 35.40625 42 36.203125 35.40625 36.203125 30.59375 
L 36.203125 6.6875 
C 36.203125 2.875 35.796875 2.390625 29.40625 2.390625 
L 29.40625 -0.203125 
C 31.796875 0 36.203125 0 38.796875 0 
C 41.40625 0 45.90625 0 48.296875 -0.203125 
L 48.296875 2.390625 
C 41.90625 2.390625 41.5 2.78125 41.5 6.6875 
z
" id="CMR17-104"/>
     <path d="M 14.296875 74.484375 
L 1.40625 74.484375 
L 1.40625 71 
L 10.796875 71 
L 10.796875 -21.515625 
L 1.40625 -21.515625 
L 1.40625 -25 
L 14.296875 -25 
z
" id="CMR17-93"/>
     <path d="M 15.796875 1.59375 
C 16 0.703125 16 0.390625 16 -1.203125 
C 16 -7.234375 14 -12.765625 9.796875 -17.796875 
C 9.296875 -18.28125 9.296875 -18.484375 9.296875 -18.703125 
C 9.296875 -19.09375 9.703125 -19.5 10.09375 -19.5 
C 10.703125 -19.5 17.59375 -12.484375 17.59375 -1.359375 
C 17.59375 1.9375 17.203125 8.15625 12.5 8.15625 
C 10.296875 8.15625 8.40625 6.671875 8.40625 4.078125 
C 8.40625 1.5 10.296875 0 12.5 0 
C 13.703125 0 15 0.5 15.796875 1.59375 
" id="CMR17-44"/>
     <path d="M 15.296875 40 
L 26.703125 40 
L 26.703125 42.578125 
L 15.09375 42.578125 
L 15.09375 54.59375 
C 15.09375 62.84375 19.296875 68 23.59375 68 
C 24.90625 68 26.40625 67.609375 27.40625 66.90625 
C 26.59375 66.703125 24.5 66.015625 24.5 63.53125 
C 24.5 60.953125 26.5 60.15625 27.90625 60.15625 
C 29.296875 60.15625 31.296875 60.953125 31.296875 63.546875 
C 31.296875 67.3125 27.703125 69.59375 23.703125 69.59375 
C 18 69.59375 10.203125 64.9375 10.203125 54.390625 
L 10.203125 42.578125 
L 2.203125 42.578125 
L 2.203125 40 
L 10.203125 40 
L 10.203125 6.671875 
C 10.203125 2.875 9.796875 2.390625 3.40625 2.390625 
L 3.40625 -0.203125 
C 5.796875 0 10.40625 0 13 0 
C 15.90625 0 21 0 23.703125 -0.203125 
L 23.703125 2.390625 
C 16.5 2.390625 15.296875 2.390625 15.296875 6.859375 
z
" id="CMR17-102"/>
    </defs>
    <g transform="translate(217.77884672 45.4)scale(0.18 -0.18)">
     <use transform="scale(0.9962640099626402)" xlink:href="#CMR17-82"/>
     <use transform="translate(67.79110197112392 0.0)scale(0.9962640099626402)" xlink:href="#CMR17-101"/>
     <use transform="translate(108.27676243384185 0.0)scale(0.9962640099626402)" xlink:href="#CMR17-99"/>
     <use transform="translate(148.7624228965598 0.0)scale(0.9962640099626402)" xlink:href="#CMR17-111"/>
     <use transform="translate(194.45290001362082 0.0)scale(0.9962640099626402)" xlink:href="#CMR17-110"/>
     <use transform="translate(245.34826979393682 0.0)scale(0.9962640099626402)" xlink:href="#CMR17-115"/>
     <use transform="translate(281.1496074291719 0.0)scale(0.9962640099626402)" xlink:href="#CMR17-116"/>
     <use transform="translate(316.43037522863483 0.0)scale(0.9962640099626402)" xlink:href="#CMR17-114"/>
     <use transform="translate(351.7111430280978 0.0)scale(0.9962640099626402)" xlink:href="#CMR17-117"/>
     <use transform="translate(402.6065128084138 0.0)scale(0.9962640099626402)" xlink:href="#CMR17-99"/>
     <use transform="translate(443.09217327113174 0.0)scale(0.9962640099626402)" xlink:href="#CMR17-116"/>
     <use transform="translate(478.37294107059466 0.0)scale(0.9962640099626402)" xlink:href="#CMR17-105"/>
     <use transform="translate(503.24399955245957 0.0)scale(0.9962640099626402)" xlink:href="#CMR17-111"/>
     <use transform="translate(548.9344766695206 0.0)scale(0.9962640099626402)" xlink:href="#CMR17-110"/>
     <use transform="translate(629.9058127967388 0.0)scale(0.9962640099626402)" xlink:href="#CMR17-101"/>
     <use transform="translate(670.3914732594568 0.0)scale(0.9962640099626402)" xlink:href="#CMR17-114"/>
     <use transform="translate(705.6722410589198 0.0)scale(0.9962640099626402)" xlink:href="#CMR17-114"/>
     <use transform="translate(740.9530088583826 0.0)scale(0.9962640099626402)" xlink:href="#CMR17-111"/>
     <use transform="translate(786.6434859754437 0.0)scale(0.9962640099626402)" xlink:href="#CMR17-114"/>
     <use transform="translate(852.000220121809 0.0)scale(0.9962640099626402)" xlink:href="#CMR17-105"/>
     <use transform="translate(876.8712786036738 0.0)scale(0.9962640099626402)" xlink:href="#CMR17-110"/>
     <use transform="translate(957.842614730892 0.0)scale(0.9962640099626402)" xlink:href="#CMR17-101"/>
     <use transform="translate(998.32827519361 0.0)scale(0.9962640099626402)" xlink:href="#CMR17-97"/>
     <use transform="translate(1044.018752310671 0.0)scale(0.9962640099626402)" xlink:href="#CMR17-99"/>
     <use transform="translate(1081.9019588408703 0.0)scale(0.9962640099626402)" xlink:href="#CMR17-104"/>
     <use transform="translate(1162.8732949680884 0.0)scale(0.9962640099626402)" xlink:href="#CMR17-100"/>
     <use transform="translate(1213.7686647484045 0.0)scale(0.9962640099626402)" xlink:href="#CMR17-105"/>
     <use transform="translate(1238.6397232302695 0.0)scale(0.9962640099626402)" xlink:href="#CMR17-109"/>
     <use transform="translate(1315.5593130983423 0.0)scale(0.9962640099626402)" xlink:href="#CMR17-101"/>
     <use transform="translate(1356.0449735610603 0.0)scale(0.9962640099626402)" xlink:href="#CMR17-110"/>
     <use transform="translate(1406.9403433413763 0.0)scale(0.9962640099626402)" xlink:href="#CMR17-115"/>
     <use transform="translate(1442.7416809766112 0.0)scale(0.9962640099626402)" xlink:href="#CMR17-105"/>
     <use transform="translate(1467.6127394584762 0.0)scale(0.9962640099626402)" xlink:href="#CMR17-111"/>
     <use transform="translate(1513.3032165755371 0.0)scale(0.9962640099626402)" xlink:href="#CMR17-110"/>
     <use transform="translate(1594.2745527027555 0.0)scale(0.9962640099626402)" xlink:href="#CMR17-111"/>
     <use transform="translate(1639.9650298198164 0.0)scale(0.9962640099626402)" xlink:href="#CMR17-102"/>
     <use transform="translate(1697.5145085811023 0.0)scale(0.9962640099626402)" xlink:href="#CMR17-111"/>
     <use transform="translate(1743.2049856981632 0.0)scale(0.9962640099626402)" xlink:href="#CMR17-117"/>
     <use transform="translate(1794.1003554784793 0.0)scale(0.9962640099626402)" xlink:href="#CMR17-116"/>
     <use transform="translate(1829.3811232779424 0.0)scale(0.9962640099626402)" xlink:href="#CMR17-108"/>
     <use transform="translate(1854.2521817598072 0.0)scale(0.9962640099626402)" xlink:href="#CMR17-105"/>
     <use transform="translate(1879.123240241672 0.0)scale(0.9962640099626402)" xlink:href="#CMR17-101"/>
     <use transform="translate(1919.60890070439 0.0)scale(0.9962640099626402)" xlink:href="#CMR17-114"/>
     <use transform="translate(1954.8896685038528 0.0)scale(0.9962640099626402)" xlink:href="#CMR17-115"/>
     <use transform="translate(2020.7669724859902 0.0)scale(0.9962640099626402)" xlink:href="#CMR17-105"/>
     <use transform="translate(2045.6380309678552 0.0)scale(0.9962640099626402)" xlink:href="#CMR17-110"/>
     <use transform="translate(2126.6093670950736 0.0)scale(0.9962640099626402)" xlink:href="#CMR17-91"/>
     <use transform="translate(2151.480425576938 0.0)scale(0.9962640099626402)" xlink:href="#CMR17-51"/>
     <use transform="translate(2197.1709026939993 0.0)scale(0.9962640099626402)" xlink:href="#CMR17-48"/>
     <use transform="translate(2242.8613798110605 0.0)scale(0.9962640099626402)" xlink:href="#CMR17-44"/>
     <use transform="translate(2267.732438292925 0.0)scale(0.9962640099626402)" xlink:href="#CMR17-51"/>
     <use transform="translate(2313.422915409986 0.0)scale(0.9962640099626402)" xlink:href="#CMR17-49"/>
     <use transform="translate(2359.1133925270474 0.0)scale(0.9962640099626402)" xlink:href="#CMR17-44"/>
     <use transform="translate(2383.984451008912 0.0)scale(0.9962640099626402)" xlink:href="#CMR17-51"/>
     <use transform="translate(2429.674928125973 0.0)scale(0.9962640099626402)" xlink:href="#CMR17-50"/>
     <use transform="translate(2475.3654052430343 0.0)scale(0.9962640099626402)" xlink:href="#CMR17-93"/>
    </g>
   </g>
   <g id="legend_1">
    <g id="patch_7">
     <path d="M 679.127142 190.240321 
L 768.6 190.240321 
L 768.6 59.4 
L 679.127142 59.4 
z
" style="fill:#ffffff;stroke:#000000;stroke-linejoin:miter;stroke-width:0.5;"/>
    </g>
    <g id="line2d_30">
     <path d="M 691.727142 72.9 
L 716.927142 72.9 
" style="fill:none;stroke:#0000ff;stroke-linecap:square;stroke-width:1.75;"/>
    </g>
    <g id="line2d_31"/>
    <g id="text_16">
     <!-- 50 -->
     <defs>
      <path d="M 11.40625 57.6875 
C 12.40625 57.28125 16.5 56 20.703125 56 
C 30 56 35.09375 61.109375 38 64.0625 
C 38 64.953125 38 65.5 37.40625 65.5 
C 37.296875 65.5 37.09375 65.5 36.296875 65.046875 
C 32.796875 63.40625 28.703125 62.078125 23.703125 62.078125 
C 20.703125 62.078125 16.203125 62.484375 11.296875 64.671875 
C 10.203125 65.171875 10 65.171875 9.90625 65.171875 
C 9.40625 65.171875 9.296875 65.0625 9.296875 63.078125 
L 9.296875 34.421875 
C 9.296875 32.640625 9.296875 32.140625 10.296875 32.140625 
C 10.796875 32.140625 11 32.34375 11.5 33.03125 
C 14.703125 37.515625 19.09375 39.40625 24.09375 39.40625 
C 27.59375 39.40625 35.09375 37.21875 35.09375 20.140625 
C 35.09375 16.953125 35.09375 11.171875 32.09375 6.578125 
C 29.59375 2.484375 25.703125 0.390625 21.40625 0.390625 
C 14.796875 0.390625 8.09375 5 6.296875 12.71875 
C 6.703125 12.609375 7.5 12.421875 7.90625 12.421875 
C 9.203125 12.421875 11.703125 13.125 11.703125 16.21875 
C 11.703125 18.90625 9.796875 20 7.90625 20 
C 5.59375 20 4.09375 18.59375 4.09375 15.796875 
C 4.09375 7.09375 11 -2 21.59375 -2 
C 31.90625 -2 41.703125 6.875 41.703125 19.75 
C 41.703125 31.71875 33.90625 41 24.203125 41 
C 19.09375 41 14.796875 39.109375 11.40625 35.53125 
z
" id="CMR17-53"/>
     </defs>
     <g transform="translate(736.727142357 79.2)scale(0.18 -0.18)">
      <use transform="scale(0.9962640099626402)" xlink:href="#CMR17-53"/>
      <use transform="translate(45.69047711706103 0.0)scale(0.9962640099626402)" xlink:href="#CMR17-48"/>
     </g>
    </g>
    <g id="line2d_32">
     <path d="M 691.727142 97.988064 
L 716.927142 97.988064 
" style="fill:none;stroke:#008000;stroke-linecap:square;stroke-width:1.75;"/>
    </g>
    <g id="line2d_33"/>
    <g id="text_17">
     <!-- 121 -->
     <g transform="translate(736.727142357 104.288064169)scale(0.18 -0.18)">
      <use transform="scale(0.9962640099626402)" xlink:href="#CMR17-49"/>
      <use transform="translate(45.69047711706103 0.0)scale(0.9962640099626402)" xlink:href="#CMR17-50"/>
      <use transform="translate(91.38095423412206 0.0)scale(0.9962640099626402)" xlink:href="#CMR17-49"/>
     </g>
    </g>
    <g id="line2d_34">
     <path d="M 691.727142 123.076128 
L 716.927142 123.076128 
" style="fill:none;stroke:#ff0000;stroke-linecap:square;stroke-width:1.75;"/>
    </g>
    <g id="line2d_35"/>
    <g id="text_18">
     <!-- 350 -->
     <g transform="translate(736.727142357 129.376128337)scale(0.18 -0.18)">
      <use transform="scale(0.9962640099626402)" xlink:href="#CMR17-51"/>
      <use transform="translate(45.69047711706103 0.0)scale(0.9962640099626402)" xlink:href="#CMR17-53"/>
      <use transform="translate(91.38095423412206 0.0)scale(0.9962640099626402)" xlink:href="#CMR17-48"/>
     </g>
    </g>
    <g id="line2d_36">
     <path d="M 691.727142 148.164193 
L 716.927142 148.164193 
" style="fill:none;stroke:#00bfbf;stroke-linecap:square;stroke-width:1.75;"/>
    </g>
    <g id="line2d_37"/>
    <g id="text_19">
     <!-- 572 -->
     <defs>
      <path d="M 45.09375 61.578125 
L 45.09375 63.765625 
L 21.59375 63.765625 
C 9.90625 63.765625 9.703125 65.078125 9.296875 67 
L 7.5 67 
L 4.59375 48.34375 
L 6.40625 48.34375 
C 6.703125 50.234375 7.40625 55.3125 8.59375 57.203125 
C 9.203125 58 16.59375 58 18.296875 58 
L 40.296875 58 
L 29.203125 41.578125 
C 21.796875 30.53125 16.703125 15.609375 16.703125 2.578125 
C 16.703125 1.390625 16.703125 -2 20.296875 -2 
C 23.90625 -2 23.90625 1.390625 23.90625 2.671875 
L 23.90625 7.265625 
C 23.90625 23.5625 26.703125 34.3125 31.296875 41.1875 
z
" id="CMR17-55"/>
     </defs>
     <g transform="translate(736.727142357 154.464192506)scale(0.18 -0.18)">
      <use transform="scale(0.9962640099626402)" xlink:href="#CMR17-53"/>
      <use transform="translate(45.69047711706103 0.0)scale(0.9962640099626402)" xlink:href="#CMR17-55"/>
      <use transform="translate(91.38095423412206 0.0)scale(0.9962640099626402)" xlink:href="#CMR17-50"/>
     </g>
    </g>
    <g id="line2d_38">
     <path d="M 691.727142 173.252257 
L 716.927142 173.252257 
" style="fill:none;stroke:#bf00bf;stroke-linecap:square;stroke-width:1.75;"/>
    </g>
    <g id="line2d_39"/>
    <g id="text_20">
     <!-- 669 -->
     <defs>
      <path d="M 35.203125 29.125 
C 35.203125 7.25 26.09375 0.484375 18.59375 0.484375 
C 16.296875 0.484375 10.703125 0.484375 8.40625 4.59375 
C 11 4.1875 12.90625 5.578125 12.90625 8.09375 
C 12.90625 10.8125 10.703125 11.703125 9.296875 11.703125 
C 8.40625 11.703125 5.703125 11.296875 5.703125 7.90625 
C 5.703125 1.109375 11.59375 -2 18.796875 -2 
C 30.296875 -2 42 10.53125 42 32.390625 
C 42 59.640625 30.796875 65.296875 23.203125 65.296875 
C 13.296875 65.296875 3.796875 56.6875 3.796875 43.40625 
C 3.796875 31.109375 11.90625 22 22.09375 22 
C 30.5 22 34.203125 29.734375 35.203125 33 
z
M 22.296875 23.59375 
C 19.59375 23.59375 15.796875 24.09375 12.703125 30.03125 
C 10.59375 33.890625 10.59375 38.453125 10.59375 43.296875 
C 10.59375 49.15625 10.59375 53.203125 13.40625 57.5625 
C 14.796875 59.640625 17.40625 63 23.203125 63 
C 35 63 35 45.078125 35 41.125 
C 35 34.09375 31.796875 23.59375 22.296875 23.59375 
" id="CMR17-57"/>
     </defs>
     <g transform="translate(736.727142357 179.552256674)scale(0.18 -0.18)">
      <use transform="scale(0.9962640099626402)" xlink:href="#CMR17-54"/>
      <use transform="translate(45.69047711706103 0.0)scale(0.9962640099626402)" xlink:href="#CMR17-54"/>
      <use transform="translate(91.38095423412206 0.0)scale(0.9962640099626402)" xlink:href="#CMR17-57"/>
     </g>
    </g>
   </g>
  </g>
 </g>
 <defs>
  <clipPath id="p210285c4dc">
   <rect height="403.2" width="669.6" x="108.0" y="50.4"/>
  </clipPath>
 </defs>
</svg>
