<?xml version="1.0" encoding="utf-8" standalone="no"?>
<!DOCTYPE svg PUBLIC "-//W3C//DTD SVG 1.1//EN"
  "http://www.w3.org/Graphics/SVG/1.1/DTD/svg11.dtd">
<!-- Created with matplotlib (http://matplotlib.org/) -->
<svg height="504pt" version="1.1" viewBox="0 0 720 504" width="720pt" xmlns="http://www.w3.org/2000/svg" xmlns:xlink="http://www.w3.org/1999/xlink">
 <defs>
  <style type="text/css">
*{stroke-linecap:butt;stroke-linejoin:round;}
  </style>
 </defs>
 <g id="figure_1">
  <g id="patch_1">
   <path d="M 0 504 
L 720 504 
L 720 0 
L 0 0 
z
" style="fill:none;opacity:0;"/>
  </g>
  <g id="axes_1">
   <g id="patch_2">
    <path d="M 90 448.56 
L 648 448.56 
L 648 60.48 
L 90 60.48 
z
" style="fill:#ffffff;"/>
   </g>
   <g id="matplotlib.axis_1">
    <g id="xtick_1">
     <g id="line2d_1">
      <defs>
       <path d="M 0 0 
L 0 3.5 
" id="mc322316804" style="stroke:#000000;"/>
      </defs>
      <g>
       <use style="stroke:#000000;" x="90" xlink:href="#mc322316804" y="448.56"/>
      </g>
     </g>
     <g id="text_1">
      <!-- $0$ -->
      <defs>
       <path d="M 42 31.640625 
C 42 37.75 41.90625 48.125 37.703125 56.109375 
C 34 63.109375 28.09375 65.59375 22.90625 65.59375 
C 18.09375 65.59375 12 63.40625 8.203125 56.203125 
C 4.203125 48.71875 3.796875 39.4375 3.796875 31.640625 
C 3.796875 25.953125 3.90625 17.28125 7 9.671875 
C 11.296875 -0.609375 19 -2 22.90625 -2 
C 27.5 -2 34.5 -0.109375 38.59375 9.375 
C 41.59375 16.28125 42 24.359375 42 31.640625 
M 22.90625 -0.40625 
C 16.5 -0.40625 12.703125 5.078125 11.296875 12.6875 
C 10.203125 18.5625 10.203125 27.15625 10.203125 32.75 
C 10.203125 40.4375 10.203125 46.828125 11.5 52.921875 
C 13.40625 61.390625 19 64 22.90625 64 
C 27 64 32.296875 61.296875 34.203125 53.125 
C 35.5 47.4375 35.59375 40.734375 35.59375 32.75 
C 35.59375 26.25 35.59375 18.265625 34.40625 12.375 
C 32.296875 1.484375 26.40625 -0.40625 22.90625 -0.40625 
" id="CMR17-48"/>
      </defs>
      <g transform="translate(87.073505 467.36218)scale(0.12 -0.12)">
       <use transform="scale(0.996264)" xlink:href="#CMR17-48"/>
      </g>
     </g>
    </g>
    <g id="xtick_2">
     <g id="line2d_2">
      <g>
       <use style="stroke:#000000;" x="201.6" xlink:href="#mc322316804" y="448.56"/>
      </g>
     </g>
     <g id="text_2">
      <!-- $20$ -->
      <defs>
       <path d="M 41.703125 15.453125 
L 39.90625 15.453125 
C 38.90625 8.375 38.09375 7.171875 37.703125 6.5625 
C 37.203125 5.765625 30 5.765625 28.59375 5.765625 
L 9.40625 5.765625 
C 13 9.671875 20 16.75 28.5 24.953125 
C 34.59375 30.734375 41.703125 37.53125 41.703125 47.421875 
C 41.703125 59.21875 32.296875 66 21.796875 66 
C 10.796875 66 4.09375 56.3125 4.09375 47.34375 
C 4.09375 43.4375 7 42.9375 8.203125 42.9375 
C 9.203125 42.9375 12.203125 43.546875 12.203125 47.03125 
C 12.203125 50.109375 9.59375 51 8.203125 51 
C 7.59375 51 7 50.90625 6.59375 50.703125 
C 8.5 59.21875 14.296875 63.40625 20.40625 63.40625 
C 29.09375 63.40625 34.796875 56.515625 34.796875 47.421875 
C 34.796875 38.734375 29.703125 31.25 24 24.75 
L 4.09375 2.28125 
L 4.09375 0 
L 39.296875 0 
z
" id="CMR17-50"/>
      </defs>
      <g transform="translate(195.74701 467.36218)scale(0.12 -0.12)">
       <use transform="scale(0.996264)" xlink:href="#CMR17-50"/>
       <use transform="translate(45.690477 0)scale(0.996264)" xlink:href="#CMR17-48"/>
      </g>
     </g>
    </g>
    <g id="xtick_3">
     <g id="line2d_3">
      <g>
       <use style="stroke:#000000;" x="313.2" xlink:href="#mc322316804" y="448.56"/>
      </g>
     </g>
     <g id="text_3">
      <!-- $40$ -->
      <defs>
       <path d="M 33.59375 64.40625 
C 33.59375 66.5 33.5 66.5 31.703125 66.5 
L 2 19.59375 
L 2 17 
L 27.796875 17 
L 27.796875 7.140625 
C 27.796875 3.5 27.59375 2.5 20.59375 2.5 
L 18.703125 2.5 
L 18.703125 0 
C 21.90625 0 27.296875 0 30.703125 0 
C 34.09375 0 39.5 0 42.703125 0 
L 42.703125 2.5 
L 40.796875 2.5 
C 33.796875 2.5 33.59375 3.5 33.59375 7.140625 
L 33.59375 17 
L 43.796875 17 
L 43.796875 19.59375 
L 33.59375 19.59375 
z
M 28.09375 57.859375 
L 28.09375 19.59375 
L 4 19.59375 
z
" id="CMR17-52"/>
      </defs>
      <g transform="translate(307.34701 467.36218)scale(0.12 -0.12)">
       <use transform="scale(0.996264)" xlink:href="#CMR17-52"/>
       <use transform="translate(45.690477 0)scale(0.996264)" xlink:href="#CMR17-48"/>
      </g>
     </g>
    </g>
    <g id="xtick_4">
     <g id="line2d_4">
      <g>
       <use style="stroke:#000000;" x="424.8" xlink:href="#mc322316804" y="448.56"/>
      </g>
     </g>
     <g id="text_4">
      <!-- $60$ -->
      <defs>
       <path d="M 10.59375 34 
C 10.59375 57.65625 21.796875 63 28.296875 63 
C 30.40625 63 35.5 62.640625 37.5 59 
C 35.90625 59 32.90625 59 32.90625 55.515625 
C 32.90625 52.828125 35.09375 51.921875 36.5 51.921875 
C 37.40625 51.921875 40.09375 52.3125 40.09375 55.625 
C 40.09375 61.78125 35.09375 65.296875 28.203125 65.296875 
C 16.296875 65.296875 3.796875 52.96875 3.796875 31 
C 3.796875 3.953125 15.09375 -2 23.09375 -2 
C 32.796875 -2 42 6.671875 42 20.046875 
C 42 32.515625 33.90625 41.59375 23.703125 41.59375 
C 17.59375 41.59375 13.09375 37.609375 10.59375 30.625 
z
M 23.09375 0.390625 
C 10.796875 0.390625 10.796875 18.75 10.796875 22.4375 
C 10.796875 29.625 14.203125 40 23.5 40 
C 25.203125 40 30.09375 40 33.40625 33.125 
C 35.203125 29.21875 35.203125 25.140625 35.203125 20.140625 
C 35.203125 14.75 35.203125 10.78125 33.09375 6.78125 
C 30.90625 2.671875 27.703125 0.390625 23.09375 0.390625 
" id="CMR17-54"/>
      </defs>
      <g transform="translate(418.94701 467.36218)scale(0.12 -0.12)">
       <use transform="scale(0.996264)" xlink:href="#CMR17-54"/>
       <use transform="translate(45.690477 0)scale(0.996264)" xlink:href="#CMR17-48"/>
      </g>
     </g>
    </g>
    <g id="xtick_5">
     <g id="line2d_5">
      <g>
       <use style="stroke:#000000;" x="536.4" xlink:href="#mc322316804" y="448.56"/>
      </g>
     </g>
     <g id="text_5">
      <!-- $80$ -->
      <defs>
       <path d="M 27.203125 35.375 
C 33.5 38.546875 39.90625 43.328125 39.90625 50.984375 
C 39.90625 60.015625 31.09375 65.296875 23 65.296875 
C 13.90625 65.296875 5.90625 58.734375 5.90625 49.6875 
C 5.90625 47.203125 6.5 42.921875 10.40625 39.140625 
C 11.40625 38.15625 15.59375 35.171875 18.296875 33.28125 
C 13.796875 30.984375 3.296875 25.53125 3.296875 14.59375 
C 3.296875 4.359375 13.09375 -2 22.796875 -2 
C 33.5 -2 42.5 5.65625 42.5 15.78125 
C 42.5 24.84375 36.40625 29.015625 32.40625 31.703125 
z
M 14.09375 44.09375 
C 13.296875 44.59375 9.296875 47.671875 9.296875 52.359375 
C 9.296875 58.421875 15.59375 63 22.796875 63 
C 30.703125 63 36.5 57.4375 36.5 50.96875 
C 36.5 41.703125 26.09375 36.421875 25.59375 36.421875 
C 25.5 36.421875 25.40625 36.421875 24.59375 37.03125 
z
M 32.5 23.734375 
C 34 22.640625 38.796875 19.375 38.796875 13.296875 
C 38.796875 5.953125 31.40625 0.390625 23 0.390625 
C 13.90625 0.390625 7 6.84375 7 14.6875 
C 7 22.546875 13.09375 29.09375 20 32.1875 
z
" id="CMR17-56"/>
      </defs>
      <g transform="translate(530.54701 467.36218)scale(0.12 -0.12)">
       <use transform="scale(0.996264)" xlink:href="#CMR17-56"/>
       <use transform="translate(45.690477 0)scale(0.996264)" xlink:href="#CMR17-48"/>
      </g>
     </g>
    </g>
    <g id="xtick_6">
     <g id="line2d_6">
      <g>
       <use style="stroke:#000000;" x="648" xlink:href="#mc322316804" y="448.56"/>
      </g>
     </g>
     <g id="text_6">
      <!-- $100$ -->
      <defs>
       <path d="M 26.59375 63.40625 
C 26.59375 65.5 26.5 65.5 25.09375 65.5 
C 21.203125 61.1875 15.296875 59.796875 9.703125 59.796875 
C 9.40625 59.796875 8.90625 59.796875 8.796875 59.5 
C 8.703125 59.296875 8.703125 59.09375 8.703125 57 
C 11.796875 57 17 57.59375 21 59.984375 
L 21 7.203125 
C 21 3.6875 20.796875 2.5 12.203125 2.5 
L 9.203125 2.5 
L 9.203125 0 
C 14 0 19 0 23.796875 0 
C 28.59375 0 33.59375 0 38.40625 0 
L 38.40625 2.5 
L 35.40625 2.5 
C 26.796875 2.5 26.59375 3.59375 26.59375 7.15625 
z
" id="CMR17-49"/>
      </defs>
      <g transform="translate(639.220515 467.36218)scale(0.12 -0.12)">
       <use transform="scale(0.996264)" xlink:href="#CMR17-49"/>
       <use transform="translate(45.690477 0)scale(0.996264)" xlink:href="#CMR17-48"/>
       <use transform="translate(91.380954 0)scale(0.996264)" xlink:href="#CMR17-48"/>
      </g>
     </g>
    </g>
    <g id="text_7">
     <!-- Index -->
     <defs>
      <path d="M 19.703125 61.015625 
C 19.703125 65.5 20.90625 65.5 28.09375 65.5 
L 28.09375 68 
C 24.90625 68 19.796875 68 16.40625 68 
C 13 68 7.90625 68 4.703125 68 
L 4.703125 65.5 
C 11.90625 65.5 13.09375 65.5 13.09375 61.015625 
L 13.09375 6.984375 
C 13.09375 2.5 11.90625 2.5 4.703125 2.5 
L 4.703125 0 
C 7.90625 0 13 0 16.40625 0 
C 19.796875 0 24.90625 0 28.09375 0 
L 28.09375 2.5 
C 20.90625 2.5 19.703125 2.5 19.703125 6.984375 
z
" id="CMR17-73"/>
      <path d="M 41.5 30.203125 
C 41.5 35.296875 40.5 43.59375 28.703125 43.59375 
C 20.796875 43.59375 16.703125 37.5 15.203125 33.5 
L 15.09375 33.5 
L 15.09375 43.59375 
L 3.296875 42.5 
L 3.296875 39.90625 
C 9.203125 39.90625 10.09375 39.296875 10.09375 34.5 
L 10.09375 6.6875 
C 10.09375 2.875 9.703125 2.390625 3.296875 2.390625 
L 3.296875 -0.203125 
C 5.703125 0 10.09375 0 12.703125 0 
C 15.296875 0 19.796875 0 22.203125 -0.203125 
L 22.203125 2.390625 
C 15.796875 2.390625 15.40625 2.78125 15.40625 6.6875 
L 15.40625 25.90625 
C 15.40625 35.109375 21 42 28 42 
C 35.40625 42 36.203125 35.40625 36.203125 30.59375 
L 36.203125 6.6875 
C 36.203125 2.875 35.796875 2.390625 29.40625 2.390625 
L 29.40625 -0.203125 
C 31.796875 0 36.203125 0 38.796875 0 
C 41.40625 0 45.90625 0 48.296875 -0.203125 
L 48.296875 2.390625 
C 41.90625 2.390625 41.5 2.78125 41.5 6.6875 
z
" id="CMR17-110"/>
      <path d="M 29.203125 67.59375 
L 29.203125 65 
C 35.09375 65 36 64.40625 36 59.6875 
L 36 36.640625 
C 35.59375 37.140625 31.5 43.59375 23.40625 43.59375 
C 13.203125 43.59375 3.296875 34.5 3.296875 21.3125 
C 3.296875 8.203125 12.59375 -1 22.40625 -1 
C 30.90625 -1 35.296875 5.265625 35.796875 5.9375 
L 35.796875 -0.984375 
L 47.90625 -0.984375 
L 47.90625 2 
C 42 2 41.09375 2.59375 41.09375 7.390625 
L 41.09375 68.6875 
z
M 35.796875 11.796875 
C 35.796875 8.796875 34 6.09375 31.703125 4.09375 
C 28.296875 1.09375 24.90625 0.59375 23 0.59375 
C 20.09375 0.59375 9.703125 2.09375 9.703125 21.1875 
C 9.703125 40.8125 21.296875 42 23.90625 42 
C 28.5 42 32.203125 39.40625 34.5 35.796875 
C 35.796875 33.703125 35.796875 33.40625 35.796875 31.609375 
z
" id="CMR17-100"/>
      <path d="M 38.09375 23 
C 38.5 23.40625 38.5 23.609375 38.5 24.625 
C 38.5 34.96875 33.09375 44 21.703125 44 
C 11.09375 44 2.703125 33.890625 2.703125 21.609375 
C 2.703125 8.609375 12.203125 -1 22.796875 -1 
C 34 -1 38.40625 9.484375 38.40625 11.5625 
C 38.40625 12.25 37.796875 12.25 37.59375 12.25 
C 36.90625 12.25 36.796875 12.046875 36.40625 10.875 
C 34.203125 4.140625 28.703125 0.796875 23.5 0.796875 
C 19.203125 0.796875 14.90625 3.171875 12.203125 7.5 
C 9.09375 12.546875 9.09375 18.375 9.09375 23 
z
M 9.203125 24.5 
C 9.90625 39.140625 17.59375 42.40625 21.59375 42.40625 
C 28.40625 42.40625 33 35.890625 33.09375 24.5 
z
" id="CMR17-101"/>
      <path d="M 26 23.078125 
C 29 26.96875 32.40625 31.34375 35.203125 34.625 
C 38.5 38.40625 42.296875 40 46.703125 40 
L 46.703125 42.59375 
C 45 42.59375 41.5 42.59375 39.703125 42.59375 
C 37 42.59375 33.90625 42.59375 31.59375 42.6875 
L 31.59375 40.09375 
C 33 39.890625 33.796875 38.890625 33.796875 37.5 
C 33.796875 35.703125 32.796875 34.609375 32.296875 33.921875 
L 24.90625 24.578125 
L 16.09375 36.03125 
C 15.203125 37.125 15.203125 37.3125 15.203125 37.8125 
C 15.203125 39.015625 16.203125 40 17.90625 40 
L 17.90625 42.6875 
C 15.5 42.59375 11.203125 42.59375 8.703125 42.59375 
C 6 42.59375 2.796875 42.59375 0.59375 42.6875 
L 0.59375 40 
C 6 40 7.203125 39.59375 9.59375 36.609375 
L 21.09375 21.796875 
C 21.296875 21.59375 21.796875 21 21.796875 20.703125 
C 21.796875 20.296875 13.09375 9.671875 12 8.28125 
C 7.5 2.890625 2.796875 2.5 0.09375 2.5 
L 0.09375 0 
C 1.796875 0 5.296875 0 7.09375 0 
C 9.09375 0 13.5 0 15.296875 -0.09375 
L 15.296875 2.5 
C 14.703125 2.59375 13.09375 2.796875 13.09375 5.078125 
C 13.09375 6.875 13.90625 7.96875 14.796875 9.15625 
L 23.09375 19.3125 
L 31.796875 8 
C 32.59375 6.90625 33.796875 5.40625 33.796875 4.703125 
C 33.796875 3.296875 32.59375 2.5 31 2.5 
L 31 -0.09375 
C 33.40625 0 37.703125 0 40.203125 0 
C 42.90625 0 46.09375 0 48.296875 -0.09375 
L 48.296875 2.5 
C 43.296875 2.5 41.796875 2.6875 39.40625 5.78125 
z
" id="CMR17-120"/>
     </defs>
     <g transform="translate(348.911323 486.140076)scale(0.18 -0.18)">
      <use transform="scale(0.996264)" xlink:href="#CMR17-73"/>
      <use transform="translate(32.638409 0)scale(0.996264)" xlink:href="#CMR17-110"/>
      <use transform="translate(83.533779 0)scale(0.996264)" xlink:href="#CMR17-100"/>
      <use transform="translate(134.429149 0)scale(0.996264)" xlink:href="#CMR17-101"/>
      <use transform="translate(174.914809 0)scale(0.996264)" xlink:href="#CMR17-120"/>
     </g>
    </g>
   </g>
   <g id="matplotlib.axis_2">
    <g id="ytick_1">
     <g id="line2d_7">
      <defs>
       <path d="M 0 0 
L -3.5 0 
" id="mfd6e061eb4" style="stroke:#000000;"/>
      </defs>
      <g>
       <use style="stroke:#000000;" x="90" xlink:href="#mfd6e061eb4" y="391.251328"/>
      </g>
     </g>
     <g id="text_8">
      <!-- $-0.2$ -->
      <defs>
       <path d="M 65.90625 23 
C 67.59375 23 69.40625 23 69.40625 25 
C 69.40625 27 67.59375 27 65.90625 27 
L 11.796875 27 
C 10.09375 27 8.296875 27 8.296875 25 
C 8.296875 23 10.09375 23 11.796875 23 
z
" id="CMSY10-0"/>
       <path d="M 18.40625 4.796875 
C 18.40625 7.6875 16 9.671875 13.59375 9.671875 
C 10.703125 9.671875 8.703125 7.28125 8.703125 4.890625 
C 8.703125 2 11.09375 0 13.5 0 
C 16.40625 0 18.40625 2.390625 18.40625 4.796875 
" id="CMMI12-58"/>
      </defs>
      <g transform="translate(55.243869 395.402417)scale(0.12 -0.12)">
       <use transform="scale(0.996264)" xlink:href="#CMSY10-0"/>
       <use transform="translate(77.487468 0)scale(0.996264)" xlink:href="#CMR17-48"/>
       <use transform="translate(123.177945 0)scale(0.996264)" xlink:href="#CMMI12-58"/>
       <use transform="translate(150.275122 0)scale(0.996264)" xlink:href="#CMR17-50"/>
      </g>
     </g>
    </g>
    <g id="ytick_2">
     <g id="line2d_8">
      <g>
       <use style="stroke:#000000;" x="90" xlink:href="#mfd6e061eb4" y="312.883753"/>
      </g>
     </g>
     <g id="text_9">
      <!-- $0.0$ -->
      <g transform="translate(64.542358 317.034843)scale(0.12 -0.12)">
       <use transform="scale(0.996264)" xlink:href="#CMR17-48"/>
       <use transform="translate(45.690477 0)scale(0.996264)" xlink:href="#CMMI12-58"/>
       <use transform="translate(72.787654 0)scale(0.996264)" xlink:href="#CMR17-48"/>
      </g>
     </g>
    </g>
    <g id="ytick_3">
     <g id="line2d_9">
      <g>
       <use style="stroke:#000000;" x="90" xlink:href="#mfd6e061eb4" y="234.516179"/>
      </g>
     </g>
     <g id="text_10">
      <!-- $0.2$ -->
      <g transform="translate(64.542358 238.667269)scale(0.12 -0.12)">
       <use transform="scale(0.996264)" xlink:href="#CMR17-48"/>
       <use transform="translate(45.690477 0)scale(0.996264)" xlink:href="#CMMI12-58"/>
       <use transform="translate(72.787654 0)scale(0.996264)" xlink:href="#CMR17-50"/>
      </g>
     </g>
    </g>
    <g id="ytick_4">
     <g id="line2d_10">
      <g>
       <use style="stroke:#000000;" x="90" xlink:href="#mfd6e061eb4" y="156.148604"/>
      </g>
     </g>
     <g id="text_11">
      <!-- $0.4$ -->
      <g transform="translate(64.542358 160.299694)scale(0.12 -0.12)">
       <use transform="scale(0.996264)" xlink:href="#CMR17-48"/>
       <use transform="translate(45.690477 0)scale(0.996264)" xlink:href="#CMMI12-58"/>
       <use transform="translate(72.787654 0)scale(0.996264)" xlink:href="#CMR17-52"/>
      </g>
     </g>
    </g>
    <g id="ytick_5">
     <g id="line2d_11">
      <g>
       <use style="stroke:#000000;" x="90" xlink:href="#mfd6e061eb4" y="77.78103"/>
      </g>
     </g>
     <g id="text_12">
      <!-- $0.6$ -->
      <g transform="translate(64.542358 81.93212)scale(0.12 -0.12)">
       <use transform="scale(0.996264)" xlink:href="#CMR17-48"/>
       <use transform="translate(45.690477 0)scale(0.996264)" xlink:href="#CMMI12-58"/>
       <use transform="translate(72.787654 0)scale(0.996264)" xlink:href="#CMR17-54"/>
      </g>
     </g>
    </g>
    <g id="text_13">
     <!-- Reconstruction error -->
     <defs>
      <path d="M 39.203125 33.53125 
C 48.703125 35.4375 56.703125 41.8125 56.703125 49.78125 
C 56.703125 59.140625 46.09375 67.59375 32.09375 67.59375 
L 5.203125 67.59375 
L 5.203125 65 
C 12.09375 65 13.203125 65 13.203125 60.515625 
L 13.203125 6.484375 
C 13.203125 2 12.09375 2 5.203125 2 
L 5.203125 -0.40625 
C 8.09375 -0.40625 13.296875 -0.40625 16.40625 -0.40625 
C 19.5 -0.40625 24.703125 -0.40625 27.59375 -0.40625 
L 27.59375 2 
C 20.703125 2 19.59375 2 19.59375 6.515625 
L 19.59375 33 
L 31.296875 33 
C 37 33 40.203125 30.6875 41.59375 29.390625 
C 45.59375 25.5 45.59375 22.796875 45.59375 16 
C 45.59375 9.296875 45.59375 5.890625 48.59375 2.5 
C 52.40625 -1.59375 57.5 -2 59.703125 -2 
C 67.09375 -2 68.203125 6.1875 68.203125 7.859375 
C 68.203125 8.4375 68.203125 9.140625 67.296875 9.140625 
C 66.5 9.140625 66.40625 8.546875 66.40625 8.15625 
C 65.90625 1.75 63 -0.40625 59.90625 -0.40625 
C 54.40625 -0.40625 53.796875 5.859375 53.203125 11.9375 
C 52.90625 14.03125 52.703125 15.515625 52.5 17.703125 
C 51.90625 22.6875 51.09375 29.953125 39.203125 33.53125 
M 31 34.59375 
L 19.59375 34.59375 
L 19.59375 61.140625 
C 19.59375 64.515625 19.796875 65 23.796875 65 
L 31.09375 65 
C 39.40625 65 49.09375 62.140625 49.09375 49.84375 
C 49.09375 37.0625 38.5 34.59375 31 34.59375 
" id="CMR17-82"/>
      <path d="M 34.90625 35 
C 33 35 30.203125 35 30.203125 31.515625 
C 30.203125 28.71875 32.5 27.921875 33.796875 27.921875 
C 34.5 27.921875 37.40625 28.234375 37.40625 31.625 
C 37.40625 38.546875 30.59375 43.796875 22.90625 43.796875 
C 12.296875 43.796875 3.296875 34.03125 3.296875 21.296875 
C 3.296875 8.0625 12.703125 -1 22.90625 -1 
C 35.296875 -1 38.40625 10.578125 38.40625 11.6875 
C 38.40625 12.09375 38.296875 12.390625 37.59375 12.390625 
C 36.90625 12.390625 36.796875 12.296875 36.40625 10.984375 
C 33.796875 2.8125 28.09375 0.796875 23.796875 0.796875 
C 17.40625 0.796875 9.703125 6.671875 9.703125 21.390625 
C 9.703125 36.53125 17.09375 42 23 42 
C 26.90625 42 32.703125 40.203125 34.90625 35 
" id="CMR17-99"/>
      <path d="M 43.09375 21.1875 
C 43.09375 34 33.796875 44 22.90625 44 
C 12 44 2.703125 34 2.703125 21.1875 
C 2.703125 8.609375 12 -1 22.90625 -1 
C 33.796875 -1 43.09375 8.609375 43.09375 21.1875 
M 22.90625 0.796875 
C 18.203125 0.796875 14.203125 3.59375 11.90625 7.5 
C 9.40625 11.984375 9.09375 17.59375 9.09375 22 
C 9.09375 26.203125 9.296875 31.40625 11.90625 35.90625 
C 13.90625 39.203125 17.796875 42.40625 22.90625 42.40625 
C 27.40625 42.40625 31.203125 39.90625 33.59375 36.40625 
C 36.703125 31.703125 36.703125 25.109375 36.703125 22 
C 36.703125 18.09375 36.5 12.109375 33.796875 7.296875 
C 31 2.703125 26.703125 0.796875 22.90625 0.796875 
" id="CMR17-111"/>
      <path d="M 30.90625 42.140625 
C 30.90625 43.953125 30.796875 44.046875 30.203125 44.046875 
C 29.796875 44.046875 29.703125 43.953125 28.5 42.453125 
C 28.203125 42.046875 27.296875 41.03125 27 40.640625 
C 23.796875 44.046875 19.296875 44.046875 17.59375 44.046875 
C 6.5 44.046875 2.5 38.234375 2.5 32.4375 
C 2.5 23.40625 12.703125 21.328125 15.59375 20.703125 
C 21.90625 19.421875 24.09375 19.015625 26.203125 17.203125 
C 27.5 16.015625 29.703125 13.8125 29.703125 10.21875 
C 29.703125 6 27.296875 0.59375 18.09375 0.59375 
C 9.40625 0.59375 6.296875 7.1875 4.5 15.953125 
C 4.203125 17.34375 4.203125 17.453125 3.40625 17.453125 
C 2.59375 17.453125 2.5 17.34375 2.5 15.359375 
L 2.5 0.984375 
C 2.5 -0.796875 2.59375 -0.90625 3.203125 -0.90625 
C 3.703125 -0.90625 3.796875 -0.796875 4.296875 0 
C 4.90625 0.890625 6.40625 3.296875 7 4.3125 
C 9 1.609375 12.5 -1 18.09375 -1 
C 28 -1 33.296875 4.421875 33.296875 12.25 
C 33.296875 17.375 30.59375 20.078125 29.296875 21.28125 
C 26.296875 24.390625 22.796875 25.09375 18.59375 25.890625 
C 13.09375 27.109375 6.09375 28.515625 6.09375 34.640625 
C 6.09375 37.234375 7.5 42.765625 17.59375 42.765625 
C 28.296875 42.765625 28.90625 32.71875 29.09375 29.5 
C 29.203125 29 29.703125 28.890625 30 28.890625 
C 30.90625 28.890625 30.90625 29.203125 30.90625 30.90625 
z
" id="CMR17-115"/>
      <path d="M 15.09375 40 
L 29.09375 40 
L 29.09375 42.578125 
L 15.09375 42.578125 
L 15.09375 61 
L 13.296875 61 
C 13.09375 50.703125 9.59375 41.6875 1.09375 41.6875 
L 1.09375 40 
L 9.796875 40 
L 9.796875 12.046875 
C 9.796875 10.15625 9.796875 -1 21.40625 -1 
C 27.296875 -1 30.703125 4.78125 30.703125 12.140625 
L 30.703125 17.8125 
L 28.90625 17.8125 
L 28.90625 12.234375 
C 28.90625 5.375 26.203125 0.796875 22 0.796875 
C 19.09375 0.796875 15.09375 2.78125 15.09375 11.84375 
z
" id="CMR17-116"/>
      <path d="M 15 23.390625 
C 15 33 19.09375 42 26.59375 42 
C 27.296875 42 28 41.90625 28.703125 41.59375 
C 28.703125 41.59375 26.5 40.890625 26.5 38.3125 
C 26.5 35.90625 28.40625 34.90625 29.90625 34.90625 
C 31.09375 34.90625 33.296875 35.609375 33.296875 38.40625 
C 33.296875 41.609375 30.09375 43.59375 26.703125 43.59375 
C 19.09375 43.59375 15.796875 36.203125 14.796875 32.703125 
L 14.703125 32.703125 
L 14.703125 43.59375 
L 3.09375 42.5 
L 3.09375 39.90625 
C 9 39.90625 9.90625 39.296875 9.90625 34.5 
L 9.90625 6.6875 
C 9.90625 2.875 9.5 2.390625 3.09375 2.390625 
L 3.09375 -0.203125 
C 5.5 0 10.09375 0 12.703125 0 
C 15.59375 0 20.703125 0 23.40625 -0.203125 
L 23.40625 2.390625 
C 16.203125 2.390625 15 2.390625 15 6.875 
z
" id="CMR17-114"/>
      <path d="M 29.40625 42.078125 
L 29.40625 39.5 
C 35.296875 39.5 36.203125 38.890625 36.203125 34.15625 
L 36.203125 16.125 
C 36.203125 7.8125 31.703125 0.59375 24.296875 0.59375 
C 16.09375 0.59375 15.40625 5.4375 15.40625 10.59375 
L 15.40625 43.171875 
L 3.296875 42.078125 
L 3.296875 39.5 
C 7.296875 39.5 10 39.5 10.09375 35.53125 
L 10.09375 16.53125 
C 10.09375 9.890625 10.09375 5.640625 12.703125 2.859375 
C 14 1.578125 16.5 -1 23.703125 -1 
C 32.203125 -1 35.5 5.890625 36.296875 7.90625 
L 36.40625 7.90625 
L 36.40625 -0.984375 
L 48.296875 -0.984375 
L 48.296875 2 
C 42.40625 2 41.5 2.59375 41.5 7.390625 
L 41.5 43.171875 
z
" id="CMR17-117"/>
      <path d="M 15.5 61.078125 
C 15.5 63.265625 13.703125 65.15625 11.40625 65.15625 
C 9.203125 65.15625 7.296875 63.375 7.296875 61.078125 
C 7.296875 58.890625 9.09375 57 11.40625 57 
C 13.59375 57 15.5 58.796875 15.5 61.078125 
M 3.796875 42.28125 
L 3.796875 39.703125 
C 9.40625 39.703125 10.203125 39.09375 10.203125 34.328125 
L 10.203125 6.671875 
C 10.203125 2.875 9.796875 2.390625 3.40625 2.390625 
L 3.40625 -0.203125 
C 5.796875 0 10.09375 0 12.59375 0 
C 15 0 19.09375 0 21.40625 -0.203125 
L 21.40625 2.390625 
C 15.5 2.390625 15.296875 2.984375 15.296875 6.5625 
L 15.296875 43.375 
z
" id="CMR17-105"/>
     </defs>
     <g transform="translate(47.755805 328.493127)rotate(-90)scale(0.18 -0.18)">
      <use transform="scale(0.996264)" xlink:href="#CMR17-82"/>
      <use transform="translate(67.791102 0)scale(0.996264)" xlink:href="#CMR17-101"/>
      <use transform="translate(108.276762 0)scale(0.996264)" xlink:href="#CMR17-99"/>
      <use transform="translate(148.762423 0)scale(0.996264)" xlink:href="#CMR17-111"/>
      <use transform="translate(194.4529 0)scale(0.996264)" xlink:href="#CMR17-110"/>
      <use transform="translate(245.34827 0)scale(0.996264)" xlink:href="#CMR17-115"/>
      <use transform="translate(281.149607 0)scale(0.996264)" xlink:href="#CMR17-116"/>
      <use transform="translate(316.430375 0)scale(0.996264)" xlink:href="#CMR17-114"/>
      <use transform="translate(351.711143 0)scale(0.996264)" xlink:href="#CMR17-117"/>
      <use transform="translate(402.606513 0)scale(0.996264)" xlink:href="#CMR17-99"/>
      <use transform="translate(443.092173 0)scale(0.996264)" xlink:href="#CMR17-116"/>
      <use transform="translate(478.372941 0)scale(0.996264)" xlink:href="#CMR17-105"/>
      <use transform="translate(503.244 0)scale(0.996264)" xlink:href="#CMR17-111"/>
      <use transform="translate(548.934477 0)scale(0.996264)" xlink:href="#CMR17-110"/>
      <use transform="translate(629.905813 0)scale(0.996264)" xlink:href="#CMR17-101"/>
      <use transform="translate(670.391473 0)scale(0.996264)" xlink:href="#CMR17-114"/>
      <use transform="translate(705.672241 0)scale(0.996264)" xlink:href="#CMR17-114"/>
      <use transform="translate(740.953009 0)scale(0.996264)" xlink:href="#CMR17-111"/>
      <use transform="translate(786.643486 0)scale(0.996264)" xlink:href="#CMR17-114"/>
     </g>
    </g>
   </g>
   <g id="line2d_12">
    <path clip-path="url(#p398b64ef01)" d="M 90 285.197659 
L 95.58 310.072905 
L 101.16 249.584055 
L 106.74 302.947567 
L 112.32 265.364523 
L 117.9 332.997982 
L 123.48 336.920713 
L 129.06 299.64424 
L 134.64 303.961353 
L 140.22 351.876456 
L 145.8 303.166999 
L 151.38 286.672993 
L 156.96 292.033421 
L 162.54 278.832483 
L 168.12 309.409877 
L 173.7 309.578846 
L 179.28 276.812782 
L 184.86 308.221399 
L 190.44 307.227249 
L 196.02 315.670978 
L 201.6 320.495311 
L 207.18 285.052061 
L 212.76 285.274766 
L 218.34 297.583203 
L 223.92 281.187264 
L 229.5 299.79926 
L 235.08 260.460809 
L 240.66 288.109088 
L 246.24 312.964963 
L 251.82 275.768336 
L 257.4 197.637233 
L 262.98 178.927 
L 268.56 142.295897 
L 274.14 288.428008 
L 279.72 305.663633 
L 285.3 273.481771 
L 290.88 257.372448 
L 296.46 319.475964 
L 302.04 308.611264 
L 307.62 267.489315 
L 313.2 254.180145 
L 318.78 307.515777 
L 324.36 297.533585 
L 329.94 281.143356 
L 335.52 302.679744 
L 341.1 269.449211 
L 346.68 303.744638 
L 352.26 334.386283 
L 357.84 319.492628 
L 363.42 308.989509 
L 369 236.980314 
L 374.58 251.067518 
L 380.16 227.660171 
L 385.74 278.53531 
L 391.32 307.495021 
L 396.9 332.384011 
L 402.48 321.420148 
L 408.06 345.00237 
L 413.64 351.569269 
L 419.22 354.765917 
L 424.8 369.822386 
L 430.38 345.951085 
L 435.96 377.085738 
L 441.54 336.974441 
L 447.12 364.821537 
L 452.7 315.627724 
L 458.28 338.343241 
L 463.86 337.655902 
L 469.44 163.238015 
L 475.02 118.746399 
L 480.6 315.695515 
L 486.18 328.54331 
L 491.76 306.361956 
L 497.34 320.211286 
L 502.92 280.155389 
L 508.5 296.750106 
L 514.08 318.403255 
L 519.66 313.204432 
L 525.24 315.158874 
L 530.82 276.02319 
L 536.4 310.17946 
L 541.98 293.3047 
L 547.56 289.99088 
L 553.14 329.29944 
L 558.72 301.341063 
L 564.3 335.013678 
L 569.88 306.309673 
L 575.46 283.776152 
L 581.04 323.847482 
L 586.62 323.856682 
L 592.2 271.725781 
L 597.78 313.473149 
L 603.36 327.574039 
L 608.94 319.809903 
L 614.52 305.576259 
L 620.1 261.161143 
L 625.68 305.038257 
L 631.26 314.671572 
L 636.84 304.460744 
L 642.42 321.780743 
" style="fill:none;stroke:#1f77b4;stroke-linecap:square;stroke-width:1.75;"/>
   </g>
   <g id="line2d_13">
    <path clip-path="url(#p398b64ef01)" d="M 90 308.023737 
L 95.58 272.610756 
L 101.16 306.190978 
L 106.74 296.036413 
L 112.32 325.991793 
L 117.9 326.173097 
L 123.48 310.599599 
L 129.06 284.595312 
L 134.64 290.059403 
L 140.22 332.763389 
L 145.8 321.610714 
L 151.38 312.570698 
L 156.96 175.813264 
L 162.54 169.246707 
L 168.12 216.826555 
L 173.7 182.685998 
L 179.28 264.331235 
L 184.86 293.40847 
L 190.44 287.362887 
L 196.02 300.410965 
L 201.6 349.107398 
L 207.18 320.285282 
L 212.76 351.288905 
L 218.34 308.522993 
L 223.92 315.485653 
L 229.5 319.314709 
L 235.08 366.490277 
L 240.66 317.918678 
L 246.24 336.121452 
L 251.82 268.836781 
L 257.4 115.185326 
L 262.98 129.079941 
L 268.56 78.12 
L 274.14 309.647283 
L 279.72 251.219725 
L 285.3 252.460151 
L 290.88 270.060258 
L 296.46 310.633324 
L 302.04 309.142038 
L 307.62 316.885174 
L 313.2 282.916634 
L 318.78 269.545856 
L 324.36 305.959036 
L 329.94 310.323089 
L 335.52 321.502999 
L 341.1 321.769923 
L 346.68 329.681443 
L 352.26 303.543876 
L 357.84 322.626216 
L 363.42 268.670871 
L 369 308.26101 
L 374.58 333.97663 
L 380.16 323.489727 
L 385.74 309.49769 
L 391.32 317.458764 
L 396.9 355.615958 
L 402.48 376.351107 
L 408.06 378.425845 
L 413.64 237.962733 
L 419.22 287.925051 
L 424.8 324.918091 
L 430.38 307.053564 
L 435.96 266.938464 
L 441.54 309.074359 
L 447.12 324.078349 
L 452.7 274.077776 
L 458.28 316.22255 
L 463.86 295.465888 
L 469.44 313.536681 
L 475.02 320.648148 
L 480.6 342.091519 
L 486.18 350.193303 
L 491.76 324.717469 
L 497.34 364.842685 
L 502.92 406.534345 
L 508.5 320.924576 
L 514.08 342.61949 
L 519.66 298.220618 
L 525.24 359.396356 
L 530.82 335.121602 
L 536.4 359.766024 
L 541.98 351.584327 
L 547.56 341.467257 
L 553.14 311.578548 
L 558.72 326.90304 
L 564.3 326.481035 
L 569.88 330.971812 
L 575.46 349.467328 
L 581.04 324.767091 
L 586.62 221.986239 
L 592.2 269.32325 
L 597.78 306.03657 
L 603.36 337.067522 
L 608.94 321.271631 
L 614.52 320.765544 
L 620.1 388.263484 
L 625.68 341.509457 
L 631.26 281.654838 
L 636.84 261.601484 
L 642.42 307.049718 
" style="fill:none;stroke:#ff7f0e;stroke-linecap:square;stroke-width:1.75;"/>
   </g>
   <g id="line2d_14">
    <path clip-path="url(#p398b64ef01)" d="M 90 335.457477 
L 95.58 310.753511 
L 101.16 320.937685 
L 106.74 297.865388 
L 112.32 333.964275 
L 117.9 399.430859 
L 123.48 416.512325 
L 129.06 404.740694 
L 134.64 403.268985 
L 140.22 380.26042 
L 145.8 319.638765 
L 151.38 322.162751 
L 156.96 311.691004 
L 162.54 232.657704 
L 168.12 274.557991 
L 173.7 244.282086 
L 179.28 269.407218 
L 184.86 325.299192 
L 190.44 318.104796 
L 196.02 305.615496 
L 201.6 347.754703 
L 207.18 357.931029 
L 212.76 284.243505 
L 218.34 343.564915 
L 223.92 300.558639 
L 229.5 254.699906 
L 235.08 316.260371 
L 240.66 283.443601 
L 246.24 313.158295 
L 251.82 276.834386 
L 257.4 109.031422 
L 262.98 147.006322 
L 268.56 119.866335 
L 274.14 269.138293 
L 279.72 370.348885 
L 285.3 319.730058 
L 290.88 293.125658 
L 296.46 292.356263 
L 302.04 283.323616 
L 307.62 311.87213 
L 313.2 317.582984 
L 318.78 296.667159 
L 324.36 375.009517 
L 329.94 283.252461 
L 335.52 305.716972 
L 341.1 289.098377 
L 346.68 326.970493 
L 352.26 317.637117 
L 357.84 289.316516 
L 363.42 301.225413 
L 369 310.951448 
L 374.58 297.85374 
L 380.16 337.833002 
L 385.74 315.59538 
L 391.32 309.527543 
L 396.9 318.386755 
L 402.48 320.167004 
L 408.06 338.069913 
L 413.64 289.083827 
L 419.22 319.879594 
L 424.8 335.045511 
L 430.38 290.200166 
L 435.96 292.682858 
L 441.54 294.320308 
L 447.12 309.486529 
L 452.7 283.700779 
L 458.28 316.59513 
L 463.86 311.69267 
L 469.44 312.765596 
L 475.02 304.978572 
L 480.6 332.054508 
L 486.18 321.790459 
L 491.76 350.153298 
L 497.34 313.621664 
L 502.92 309.359403 
L 508.5 218.544003 
L 514.08 302.610134 
L 519.66 250.021431 
L 525.24 348.891875 
L 530.82 281.689065 
L 536.4 304.748381 
L 541.98 344.531477 
L 547.56 241.266553 
L 553.14 356.26063 
L 558.72 350.008495 
L 564.3 307.665782 
L 569.88 302.311413 
L 575.46 240.635182 
L 581.04 311.354561 
L 586.62 333.309251 
L 592.2 315.63743 
L 597.78 302.450138 
L 603.36 285.903423 
L 608.94 321.782483 
L 614.52 311.522486 
L 620.1 312.79533 
L 625.68 335.530439 
L 631.26 264.021415 
L 636.84 317.273112 
L 642.42 311.424547 
" style="fill:none;stroke:#2ca02c;stroke-linecap:square;stroke-width:1.75;"/>
   </g>
   <g id="line2d_15">
    <path clip-path="url(#p398b64ef01)" d="M 90 290.305283 
L 95.58 315.148545 
L 101.16 262.832569 
L 106.74 303.212767 
L 112.32 268.271652 
L 117.9 334.893864 
L 123.48 336.18955 
L 129.06 323.154026 
L 134.64 340.249135 
L 140.22 327.95994 
L 145.8 305.833285 
L 151.38 322.823162 
L 156.96 264.842192 
L 162.54 250.844854 
L 168.12 331.766629 
L 173.7 313.554215 
L 179.28 311.890752 
L 184.86 279.013557 
L 190.44 300.699273 
L 196.02 278.107066 
L 201.6 288.605929 
L 207.18 264.963482 
L 212.76 287.879508 
L 218.34 330.430078 
L 223.92 312.556615 
L 229.5 311.178672 
L 235.08 248.88949 
L 240.66 312.415766 
L 246.24 284.593736 
L 251.82 238.0224 
L 257.4 126.789458 
L 262.98 149.04291 
L 268.56 134.697302 
L 274.14 252.605515 
L 279.72 308.805096 
L 285.3 267.013551 
L 290.88 338.823964 
L 296.46 322.202435 
L 302.04 314.429778 
L 307.62 321.357122 
L 313.2 307.545555 
L 318.78 282.854089 
L 324.36 244.541079 
L 329.94 302.203581 
L 335.52 264.588261 
L 341.1 255.998744 
L 346.68 273.925499 
L 352.26 298.798744 
L 357.84 309.242376 
L 363.42 347.95647 
L 369 348.889283 
L 374.58 341.474581 
L 380.16 383.679645 
L 385.74 292.189692 
L 391.32 299.961945 
L 396.9 326.438852 
L 402.48 271.843533 
L 408.06 312.677831 
L 413.64 388.638956 
L 419.22 352.76064 
L 424.8 347.300908 
L 430.38 379.837793 
L 435.96 408.530013 
L 441.54 323.806121 
L 447.12 326.440945 
L 452.7 352.365377 
L 458.28 294.290997 
L 463.86 306.380936 
L 469.44 327.350606 
L 475.02 334.466331 
L 480.6 327.675425 
L 486.18 295.758291 
L 491.76 286.800163 
L 497.34 339.523014 
L 502.92 317.81881 
L 508.5 307.543033 
L 514.08 284.161101 
L 519.66 275.690183 
L 525.24 313.900365 
L 530.82 290.44949 
L 536.4 315.54213 
L 541.98 328.544993 
L 547.56 310.151737 
L 553.14 324.358742 
L 558.72 322.758848 
L 564.3 347.86884 
L 569.88 299.570359 
L 575.46 343.003163 
L 581.04 322.343658 
L 586.62 305.408264 
L 592.2 311.18753 
L 597.78 307.67002 
L 603.36 298.958215 
L 608.94 280.820713 
L 614.52 323.343494 
L 620.1 327.832887 
L 625.68 296.13671 
L 631.26 319.247602 
L 636.84 331.405719 
L 642.42 231.349938 
" style="fill:none;stroke:#d62728;stroke-linecap:square;stroke-width:1.75;"/>
   </g>
   <g id="line2d_16">
    <path clip-path="url(#p398b64ef01)" d="M 90 309.769824 
L 95.58 277.439429 
L 101.16 251.745722 
L 106.74 326.75172 
L 112.32 271.750181 
L 117.9 300.051234 
L 123.48 258.085429 
L 129.06 286.581394 
L 134.64 248.529257 
L 140.22 320.753452 
L 145.8 302.810352 
L 151.38 279.755463 
L 156.96 365.116672 
L 162.54 383.042329 
L 168.12 327.928486 
L 173.7 387.775182 
L 179.28 372.568976 
L 184.86 319.092833 
L 190.44 318.729534 
L 196.02 295.54581 
L 201.6 298.847837 
L 207.18 323.086698 
L 212.76 317.144845 
L 218.34 317.422259 
L 223.92 308.18806 
L 229.5 286.149063 
L 235.08 191.603167 
L 240.66 268.066691 
L 246.24 259.191539 
L 251.82 315.174566 
L 257.4 129.723638 
L 262.98 159.747826 
L 268.56 171.501444 
L 274.14 293.450391 
L 279.72 231.19657 
L 285.3 308.643998 
L 290.88 299.67088 
L 296.46 314.728938 
L 302.04 238.170503 
L 307.62 242.184658 
L 313.2 313.065948 
L 318.78 323.648976 
L 324.36 272.709865 
L 329.94 313.033344 
L 335.52 302.885179 
L 341.1 281.010729 
L 346.68 324.365714 
L 352.26 377.5652 
L 357.84 333.125171 
L 363.42 307.157826 
L 369 225.433425 
L 374.58 227.581896 
L 380.16 222.136886 
L 385.74 322.571597 
L 391.32 330.376653 
L 396.9 256.002108 
L 402.48 221.185086 
L 408.06 308.904983 
L 413.64 421.608523 
L 419.22 430.92 
L 424.8 397.458032 
L 430.38 372.384433 
L 435.96 412.348999 
L 441.54 314.035736 
L 447.12 287.806359 
L 452.7 310.494785 
L 458.28 325.441111 
L 463.86 308.332632 
L 469.44 323.020804 
L 475.02 323.572437 
L 480.6 316.426881 
L 486.18 321.801576 
L 491.76 354.049392 
L 497.34 328.859247 
L 502.92 288.718981 
L 508.5 318.985156 
L 514.08 326.536197 
L 519.66 317.540835 
L 525.24 309.414629 
L 530.82 372.825161 
L 536.4 352.096925 
L 541.98 335.769831 
L 547.56 346.444934 
L 553.14 322.728982 
L 558.72 324.854406 
L 564.3 265.039954 
L 569.88 282.583634 
L 575.46 312.136916 
L 581.04 270.07364 
L 586.62 251.812273 
L 592.2 265.063309 
L 597.78 308.365963 
L 603.36 333.838236 
L 608.94 319.439625 
L 614.52 346.666471 
L 620.1 325.117791 
L 625.68 294.588912 
L 631.26 306.904755 
L 636.84 248.890541 
L 642.42 206.113897 
" style="fill:none;stroke:#9467bd;stroke-linecap:square;stroke-width:1.75;"/>
   </g>
   <g id="patch_3">
    <path d="M 90 448.56 
L 90 60.48 
" style="fill:none;stroke:#000000;stroke-linecap:square;stroke-linejoin:miter;stroke-width:0.8;"/>
   </g>
   <g id="patch_4">
    <path d="M 648 448.56 
L 648 60.48 
" style="fill:none;stroke:#000000;stroke-linecap:square;stroke-linejoin:miter;stroke-width:0.8;"/>
   </g>
   <g id="patch_5">
    <path d="M 90 448.56 
L 648 448.56 
" style="fill:none;stroke:#000000;stroke-linecap:square;stroke-linejoin:miter;stroke-width:0.8;"/>
   </g>
   <g id="patch_6">
    <path d="M 90 60.48 
L 648 60.48 
" style="fill:none;stroke:#000000;stroke-linecap:square;stroke-linejoin:miter;stroke-width:0.8;"/>
   </g>
   <g id="text_14">
    <!-- Reconstruction error in each dimension of outliers in [30,31,32] -->
    <defs>
     <path d="M 36 25.828125 
C 36 32.375 36 35.84375 31.796875 39.734375 
C 28.09375 43 23.796875 44 20.40625 44 
C 12.5 44 6.796875 37.609375 6.796875 30.796875 
C 6.796875 27 9.796875 27 10.40625 27 
C 11.703125 27 14 27.78125 14 30.53125 
C 14 33 12.09375 34.078125 10.40625 34.078125 
C 10 34.078125 9.5 33.96875 9.203125 33.875 
C 11.296875 40.5 16.703125 42.40625 20.203125 42.40625 
C 25.203125 42.40625 30.703125 37.953125 30.703125 29.453125 
L 30.703125 25 
C 24.796875 25 17.703125 24.203125 12.09375 21.203125 
C 5.796875 17.703125 4 12.703125 4 8.90625 
C 4 1.203125 13 -1 18.296875 -1 
C 23.796875 -1 28.90625 2.171875 31.09375 7.984375 
C 31.296875 3.640625 34.09375 -0.28125 38.5 -0.28125 
C 40.59375 -0.28125 45.90625 1.09375 45.90625 8.859375 
L 45.90625 14.375 
L 44.09375 14.375 
L 44.09375 8.78125 
C 44.09375 2.78125 41.40625 2 40.09375 2 
C 36 2 36 7.15625 36 11.53125 
z
M 30.703125 13.59375 
C 30.703125 4.953125 24.5 0.59375 19 0.59375 
C 14 0.59375 10.09375 4.296875 10.09375 8.90625 
C 10.09375 11.890625 11.40625 17.1875 17.203125 20.390625 
C 22 23.09375 27.5 23.5 30.703125 23.5 
z
" id="CMR17-97"/>
     <path d="M 41.5 30.203125 
C 41.5 35.296875 40.5 43.59375 28.703125 43.59375 
C 20.5 43.59375 16.5 37 15.296875 33.703125 
L 15.203125 33.703125 
L 15.203125 68.6875 
L 3.296875 67.59375 
L 3.296875 65 
C 9.203125 65 10.09375 64.40625 10.09375 59.640625 
L 10.09375 6.65625 
C 10.09375 2.875 9.703125 2.390625 3.296875 2.390625 
L 3.296875 -0.203125 
C 5.703125 0 10.09375 0 12.703125 0 
C 15.296875 0 19.796875 0 22.203125 -0.203125 
L 22.203125 2.390625 
C 15.796875 2.390625 15.40625 2.78125 15.40625 6.6875 
L 15.40625 25.90625 
C 15.40625 35.109375 21 42 28 42 
C 35.40625 42 36.203125 35.40625 36.203125 30.59375 
L 36.203125 6.6875 
C 36.203125 2.875 35.796875 2.390625 29.40625 2.390625 
L 29.40625 -0.203125 
C 31.796875 0 36.203125 0 38.796875 0 
C 41.40625 0 45.90625 0 48.296875 -0.203125 
L 48.296875 2.390625 
C 41.90625 2.390625 41.5 2.78125 41.5 6.6875 
z
" id="CMR17-104"/>
     <path d="M 67.59375 30.203125 
C 67.59375 35.1875 66.703125 43.59375 54.796875 43.59375 
C 48 43.59375 43.296875 39 41.5 33.609375 
L 41.40625 33.609375 
C 40.203125 41.8125 34.296875 43.59375 28.703125 43.59375 
C 20.796875 43.59375 16.703125 37.5 15.203125 33.5 
L 15.09375 33.5 
L 15.09375 43.59375 
L 3.296875 42.5 
L 3.296875 39.90625 
C 9.203125 39.90625 10.09375 39.296875 10.09375 34.5 
L 10.09375 6.6875 
C 10.09375 2.875 9.703125 2.390625 3.296875 2.390625 
L 3.296875 -0.203125 
C 5.703125 0 10.09375 0 12.703125 0 
C 15.296875 0 19.796875 0 22.203125 -0.203125 
L 22.203125 2.390625 
C 15.796875 2.390625 15.40625 2.78125 15.40625 6.6875 
L 15.40625 25.90625 
C 15.40625 35.109375 21 42 28 42 
C 35.40625 42 36.203125 35.40625 36.203125 30.59375 
L 36.203125 6.6875 
C 36.203125 2.875 35.796875 2.390625 29.40625 2.390625 
L 29.40625 -0.203125 
C 31.796875 0 36.203125 0 38.796875 0 
C 41.40625 0 45.90625 0 48.296875 -0.203125 
L 48.296875 2.390625 
C 41.90625 2.390625 41.5 2.78125 41.5 6.6875 
L 41.5 25.90625 
C 41.5 35.109375 47.09375 42 54.09375 42 
C 61.5 42 62.296875 35.40625 62.296875 30.59375 
L 62.296875 6.6875 
C 62.296875 2.875 61.90625 2.390625 55.5 2.390625 
L 55.5 -0.203125 
C 57.90625 0 62.296875 0 64.90625 0 
C 67.5 0 72 0 74.40625 -0.203125 
L 74.40625 2.390625 
C 68 2.390625 67.59375 2.78125 67.59375 6.6875 
z
" id="CMR17-109"/>
     <path d="M 15.296875 40 
L 26.703125 40 
L 26.703125 42.578125 
L 15.09375 42.578125 
L 15.09375 54.59375 
C 15.09375 62.84375 19.296875 68 23.59375 68 
C 24.90625 68 26.40625 67.609375 27.40625 66.90625 
C 26.59375 66.703125 24.5 66.015625 24.5 63.53125 
C 24.5 60.953125 26.5 60.15625 27.90625 60.15625 
C 29.296875 60.15625 31.296875 60.953125 31.296875 63.546875 
C 31.296875 67.3125 27.703125 69.59375 23.703125 69.59375 
C 18 69.59375 10.203125 64.9375 10.203125 54.390625 
L 10.203125 42.578125 
L 2.203125 42.578125 
L 2.203125 40 
L 10.203125 40 
L 10.203125 6.671875 
C 10.203125 2.875 9.796875 2.390625 3.40625 2.390625 
L 3.40625 -0.203125 
C 5.796875 0 10.40625 0 13 0 
C 15.90625 0 21 0 23.703125 -0.203125 
L 23.703125 2.390625 
C 16.5 2.390625 15.296875 2.390625 15.296875 6.859375 
z
" id="CMR17-102"/>
     <path d="M 15.296875 68.6875 
L 3.40625 67.59375 
L 3.40625 65 
C 9.296875 65 10.203125 64.40625 10.203125 59.640625 
L 10.203125 6.65625 
C 10.203125 2.875 9.796875 2.390625 3.40625 2.390625 
L 3.40625 -0.203125 
C 5.796875 0 10.203125 0 12.703125 0 
C 15.296875 0 19.703125 0 22.09375 -0.203125 
L 22.09375 2.390625 
C 15.703125 2.390625 15.296875 2.78125 15.296875 6.65625 
z
" id="CMR17-108"/>
     <path d="M 23.5 -25 
L 23.5 -21.515625 
L 14.09375 -21.515625 
L 14.09375 71 
L 23.5 71 
L 23.5 74.484375 
L 10.59375 74.484375 
L 10.59375 -25 
z
" id="CMR17-91"/>
     <path d="M 22.09375 33.703125 
C 31 33.703125 34.90625 25.96875 34.90625 17.03125 
C 34.90625 5 28.5 0.390625 22.703125 0.390625 
C 17.40625 0.390625 8.796875 3.03125 6.09375 10.828125 
C 6.59375 10.625 7.09375 10.625 7.59375 10.625 
C 10 10.625 11.796875 12.21875 11.796875 14.8125 
C 11.796875 17.703125 9.59375 19 7.59375 19 
C 5.90625 19 3.296875 18.203125 3.296875 14.46875 
C 3.296875 5.234375 12.296875 -2 22.90625 -2 
C 34 -2 42.5 6.71875 42.5 16.953125 
C 42.5 26.671875 34.5 33.6875 25 34.796875 
C 32.59375 36.375 39.90625 43.0625 39.90625 52.015625 
C 39.90625 59.6875 32 65.296875 23 65.296875 
C 13.90625 65.296875 5.90625 59.828125 5.90625 52.015625 
C 5.90625 48.59375 8.5 48 9.796875 48 
C 11.90625 48 13.703125 49.296875 13.703125 51.890625 
C 13.703125 54.46875 11.90625 55.765625 9.796875 55.765625 
C 9.40625 55.765625 8.90625 55.765625 8.5 55.578125 
C 11.40625 61.859375 19.296875 63 22.796875 63 
C 26.296875 63 32.90625 61.328125 32.90625 51.875 
C 32.90625 49.109375 32.5 44.1875 29.09375 39.84375 
C 26.09375 36 22.703125 36 19.40625 35.6875 
C 18.90625 35.6875 16.59375 35.453125 16.203125 35.453125 
C 15.5 35.359375 15.09375 35.265625 15.09375 34.5 
C 15.09375 33.796875 15.203125 33.703125 17.203125 33.703125 
z
" id="CMR17-51"/>
     <path d="M 15.796875 1.59375 
C 16 0.703125 16 0.390625 16 -1.203125 
C 16 -7.234375 14 -12.765625 9.796875 -17.796875 
C 9.296875 -18.28125 9.296875 -18.484375 9.296875 -18.703125 
C 9.296875 -19.09375 9.703125 -19.5 10.09375 -19.5 
C 10.703125 -19.5 17.59375 -12.484375 17.59375 -1.359375 
C 17.59375 1.9375 17.203125 8.15625 12.5 8.15625 
C 10.296875 8.15625 8.40625 6.671875 8.40625 4.078125 
C 8.40625 1.5 10.296875 0 12.5 0 
C 13.703125 0 15 0.5 15.796875 1.59375 
" id="CMR17-44"/>
     <path d="M 14.296875 74.484375 
L 1.40625 74.484375 
L 1.40625 71 
L 10.796875 71 
L 10.796875 -21.515625 
L 1.40625 -21.515625 
L 1.40625 -25 
L 14.296875 -25 
z
" id="CMR17-93"/>
    </defs>
    <g transform="translate(143.978847 54.48)scale(0.18 -0.18)">
     <use transform="scale(0.996264)" xlink:href="#CMR17-82"/>
     <use transform="translate(67.791102 0)scale(0.996264)" xlink:href="#CMR17-101"/>
     <use transform="translate(108.276762 0)scale(0.996264)" xlink:href="#CMR17-99"/>
     <use transform="translate(148.762423 0)scale(0.996264)" xlink:href="#CMR17-111"/>
     <use transform="translate(194.4529 0)scale(0.996264)" xlink:href="#CMR17-110"/>
     <use transform="translate(245.34827 0)scale(0.996264)" xlink:href="#CMR17-115"/>
     <use transform="translate(281.149607 0)scale(0.996264)" xlink:href="#CMR17-116"/>
     <use transform="translate(316.430375 0)scale(0.996264)" xlink:href="#CMR17-114"/>
     <use transform="translate(351.711143 0)scale(0.996264)" xlink:href="#CMR17-117"/>
     <use transform="translate(402.606513 0)scale(0.996264)" xlink:href="#CMR17-99"/>
     <use transform="translate(443.092173 0)scale(0.996264)" xlink:href="#CMR17-116"/>
     <use transform="translate(478.372941 0)scale(0.996264)" xlink:href="#CMR17-105"/>
     <use transform="translate(503.244 0)scale(0.996264)" xlink:href="#CMR17-111"/>
     <use transform="translate(548.934477 0)scale(0.996264)" xlink:href="#CMR17-110"/>
     <use transform="translate(629.905813 0)scale(0.996264)" xlink:href="#CMR17-101"/>
     <use transform="translate(670.391473 0)scale(0.996264)" xlink:href="#CMR17-114"/>
     <use transform="translate(705.672241 0)scale(0.996264)" xlink:href="#CMR17-114"/>
     <use transform="translate(740.953009 0)scale(0.996264)" xlink:href="#CMR17-111"/>
     <use transform="translate(786.643486 0)scale(0.996264)" xlink:href="#CMR17-114"/>
     <use transform="translate(852.00022 0)scale(0.996264)" xlink:href="#CMR17-105"/>
     <use transform="translate(876.871279 0)scale(0.996264)" xlink:href="#CMR17-110"/>
     <use transform="translate(957.842615 0)scale(0.996264)" xlink:href="#CMR17-101"/>
     <use transform="translate(998.328275 0)scale(0.996264)" xlink:href="#CMR17-97"/>
     <use transform="translate(1044.018752 0)scale(0.996264)" xlink:href="#CMR17-99"/>
     <use transform="translate(1081.901959 0)scale(0.996264)" xlink:href="#CMR17-104"/>
     <use transform="translate(1162.873295 0)scale(0.996264)" xlink:href="#CMR17-100"/>
     <use transform="translate(1213.768665 0)scale(0.996264)" xlink:href="#CMR17-105"/>
     <use transform="translate(1238.639723 0)scale(0.996264)" xlink:href="#CMR17-109"/>
     <use transform="translate(1315.559313 0)scale(0.996264)" xlink:href="#CMR17-101"/>
     <use transform="translate(1356.044974 0)scale(0.996264)" xlink:href="#CMR17-110"/>
     <use transform="translate(1406.940343 0)scale(0.996264)" xlink:href="#CMR17-115"/>
     <use transform="translate(1442.741681 0)scale(0.996264)" xlink:href="#CMR17-105"/>
     <use transform="translate(1467.612739 0)scale(0.996264)" xlink:href="#CMR17-111"/>
     <use transform="translate(1513.303217 0)scale(0.996264)" xlink:href="#CMR17-110"/>
     <use transform="translate(1594.274553 0)scale(0.996264)" xlink:href="#CMR17-111"/>
     <use transform="translate(1639.96503 0)scale(0.996264)" xlink:href="#CMR17-102"/>
     <use transform="translate(1697.514509 0)scale(0.996264)" xlink:href="#CMR17-111"/>
     <use transform="translate(1743.204986 0)scale(0.996264)" xlink:href="#CMR17-117"/>
     <use transform="translate(1794.100355 0)scale(0.996264)" xlink:href="#CMR17-116"/>
     <use transform="translate(1829.381123 0)scale(0.996264)" xlink:href="#CMR17-108"/>
     <use transform="translate(1854.252182 0)scale(0.996264)" xlink:href="#CMR17-105"/>
     <use transform="translate(1879.12324 0)scale(0.996264)" xlink:href="#CMR17-101"/>
     <use transform="translate(1919.608901 0)scale(0.996264)" xlink:href="#CMR17-114"/>
     <use transform="translate(1954.889669 0)scale(0.996264)" xlink:href="#CMR17-115"/>
     <use transform="translate(2020.766972 0)scale(0.996264)" xlink:href="#CMR17-105"/>
     <use transform="translate(2045.638031 0)scale(0.996264)" xlink:href="#CMR17-110"/>
     <use transform="translate(2126.609367 0)scale(0.996264)" xlink:href="#CMR17-91"/>
     <use transform="translate(2151.480426 0)scale(0.996264)" xlink:href="#CMR17-51"/>
     <use transform="translate(2197.170903 0)scale(0.996264)" xlink:href="#CMR17-48"/>
     <use transform="translate(2242.86138 0)scale(0.996264)" xlink:href="#CMR17-44"/>
     <use transform="translate(2267.732438 0)scale(0.996264)" xlink:href="#CMR17-51"/>
     <use transform="translate(2313.422915 0)scale(0.996264)" xlink:href="#CMR17-49"/>
     <use transform="translate(2359.113393 0)scale(0.996264)" xlink:href="#CMR17-44"/>
     <use transform="translate(2383.984451 0)scale(0.996264)" xlink:href="#CMR17-51"/>
     <use transform="translate(2429.674928 0)scale(0.996264)" xlink:href="#CMR17-50"/>
     <use transform="translate(2475.365405 0)scale(0.996264)" xlink:href="#CMR17-93"/>
    </g>
   </g>
   <g id="legend_1">
    <g id="patch_7">
     <path d="M 553.127142 200.320321 
L 635.4 200.320321 
Q 639 200.320321 639 196.720321 
L 639 73.08 
Q 639 69.48 635.4 69.48 
L 553.127142 69.48 
Q 549.527142 69.48 549.527142 73.08 
L 549.527142 196.720321 
Q 549.527142 200.320321 553.127142 200.320321 
z
" style="fill:#ffffff;opacity:0.8;stroke:#cccccc;stroke-linejoin:miter;stroke-width:0.5;"/>
    </g>
    <g id="line2d_17">
     <path d="M 556.727142 82.98 
L 592.727142 82.98 
" style="fill:none;stroke:#1f77b4;stroke-linecap:square;stroke-width:1.75;"/>
    </g>
    <g id="line2d_18"/>
    <g id="text_15">
     <!-- 50 -->
     <defs>
      <path d="M 11.40625 57.6875 
C 12.40625 57.28125 16.5 56 20.703125 56 
C 30 56 35.09375 61.109375 38 64.0625 
C 38 64.953125 38 65.5 37.40625 65.5 
C 37.296875 65.5 37.09375 65.5 36.296875 65.046875 
C 32.796875 63.40625 28.703125 62.078125 23.703125 62.078125 
C 20.703125 62.078125 16.203125 62.484375 11.296875 64.671875 
C 10.203125 65.171875 10 65.171875 9.90625 65.171875 
C 9.40625 65.171875 9.296875 65.0625 9.296875 63.078125 
L 9.296875 34.421875 
C 9.296875 32.640625 9.296875 32.140625 10.296875 32.140625 
C 10.796875 32.140625 11 32.34375 11.5 33.03125 
C 14.703125 37.515625 19.09375 39.40625 24.09375 39.40625 
C 27.59375 39.40625 35.09375 37.21875 35.09375 20.140625 
C 35.09375 16.953125 35.09375 11.171875 32.09375 6.578125 
C 29.59375 2.484375 25.703125 0.390625 21.40625 0.390625 
C 14.796875 0.390625 8.09375 5 6.296875 12.71875 
C 6.703125 12.609375 7.5 12.421875 7.90625 12.421875 
C 9.203125 12.421875 11.703125 13.125 11.703125 16.21875 
C 11.703125 18.90625 9.796875 20 7.90625 20 
C 5.59375 20 4.09375 18.59375 4.09375 15.796875 
C 4.09375 7.09375 11 -2 21.59375 -2 
C 31.90625 -2 41.703125 6.875 41.703125 19.75 
C 41.703125 31.71875 33.90625 41 24.203125 41 
C 19.09375 41 14.796875 39.109375 11.40625 35.53125 
z
" id="CMR17-53"/>
     </defs>
     <g transform="translate(607.127142 89.28)scale(0.18 -0.18)">
      <use transform="scale(0.996264)" xlink:href="#CMR17-53"/>
      <use transform="translate(45.690477 0)scale(0.996264)" xlink:href="#CMR17-48"/>
     </g>
    </g>
    <g id="line2d_19">
     <path d="M 556.727142 108.068064 
L 592.727142 108.068064 
" style="fill:none;stroke:#ff7f0e;stroke-linecap:square;stroke-width:1.75;"/>
    </g>
    <g id="line2d_20"/>
    <g id="text_16">
     <!-- 121 -->
     <g transform="translate(607.127142 114.368064)scale(0.18 -0.18)">
      <use transform="scale(0.996264)" xlink:href="#CMR17-49"/>
      <use transform="translate(45.690477 0)scale(0.996264)" xlink:href="#CMR17-50"/>
      <use transform="translate(91.380954 0)scale(0.996264)" xlink:href="#CMR17-49"/>
     </g>
    </g>
    <g id="line2d_21">
     <path d="M 556.727142 133.156128 
L 592.727142 133.156128 
" style="fill:none;stroke:#2ca02c;stroke-linecap:square;stroke-width:1.75;"/>
    </g>
    <g id="line2d_22"/>
    <g id="text_17">
     <!-- 350 -->
     <g transform="translate(607.127142 139.456128)scale(0.18 -0.18)">
      <use transform="scale(0.996264)" xlink:href="#CMR17-51"/>
      <use transform="translate(45.690477 0)scale(0.996264)" xlink:href="#CMR17-53"/>
      <use transform="translate(91.380954 0)scale(0.996264)" xlink:href="#CMR17-48"/>
     </g>
    </g>
    <g id="line2d_23">
     <path d="M 556.727142 158.244193 
L 592.727142 158.244193 
" style="fill:none;stroke:#d62728;stroke-linecap:square;stroke-width:1.75;"/>
    </g>
    <g id="line2d_24"/>
    <g id="text_18">
     <!-- 572 -->
     <defs>
      <path d="M 45.09375 61.578125 
L 45.09375 63.765625 
L 21.59375 63.765625 
C 9.90625 63.765625 9.703125 65.078125 9.296875 67 
L 7.5 67 
L 4.59375 48.34375 
L 6.40625 48.34375 
C 6.703125 50.234375 7.40625 55.3125 8.59375 57.203125 
C 9.203125 58 16.59375 58 18.296875 58 
L 40.296875 58 
L 29.203125 41.578125 
C 21.796875 30.53125 16.703125 15.609375 16.703125 2.578125 
C 16.703125 1.390625 16.703125 -2 20.296875 -2 
C 23.90625 -2 23.90625 1.390625 23.90625 2.671875 
L 23.90625 7.265625 
C 23.90625 23.5625 26.703125 34.3125 31.296875 41.1875 
z
" id="CMR17-55"/>
     </defs>
     <g transform="translate(607.127142 164.544193)scale(0.18 -0.18)">
      <use transform="scale(0.996264)" xlink:href="#CMR17-53"/>
      <use transform="translate(45.690477 0)scale(0.996264)" xlink:href="#CMR17-55"/>
      <use transform="translate(91.380954 0)scale(0.996264)" xlink:href="#CMR17-50"/>
     </g>
    </g>
    <g id="line2d_25">
     <path d="M 556.727142 183.332257 
L 592.727142 183.332257 
" style="fill:none;stroke:#9467bd;stroke-linecap:square;stroke-width:1.75;"/>
    </g>
    <g id="line2d_26"/>
    <g id="text_19">
     <!-- 669 -->
     <defs>
      <path d="M 35.203125 29.125 
C 35.203125 7.25 26.09375 0.484375 18.59375 0.484375 
C 16.296875 0.484375 10.703125 0.484375 8.40625 4.59375 
C 11 4.1875 12.90625 5.578125 12.90625 8.09375 
C 12.90625 10.8125 10.703125 11.703125 9.296875 11.703125 
C 8.40625 11.703125 5.703125 11.296875 5.703125 7.90625 
C 5.703125 1.109375 11.59375 -2 18.796875 -2 
C 30.296875 -2 42 10.53125 42 32.390625 
C 42 59.640625 30.796875 65.296875 23.203125 65.296875 
C 13.296875 65.296875 3.796875 56.6875 3.796875 43.40625 
C 3.796875 31.109375 11.90625 22 22.09375 22 
C 30.5 22 34.203125 29.734375 35.203125 33 
z
M 22.296875 23.59375 
C 19.59375 23.59375 15.796875 24.09375 12.703125 30.03125 
C 10.59375 33.890625 10.59375 38.453125 10.59375 43.296875 
C 10.59375 49.15625 10.59375 53.203125 13.40625 57.5625 
C 14.796875 59.640625 17.40625 63 23.203125 63 
C 35 63 35 45.078125 35 41.125 
C 35 34.09375 31.796875 23.59375 22.296875 23.59375 
" id="CMR17-57"/>
     </defs>
     <g transform="translate(607.127142 189.632257)scale(0.18 -0.18)">
      <use transform="scale(0.996264)" xlink:href="#CMR17-54"/>
      <use transform="translate(45.690477 0)scale(0.996264)" xlink:href="#CMR17-54"/>
      <use transform="translate(91.380954 0)scale(0.996264)" xlink:href="#CMR17-57"/>
     </g>
    </g>
   </g>
  </g>
 </g>
 <defs>
  <clipPath id="p398b64ef01">
   <rect height="388.08" width="558" x="90" y="60.48"/>
  </clipPath>
 </defs>
</svg>
