<?xml version="1.0" encoding="utf-8"?>
<!-- Generator: Adobe Illustrator 16.0.0, SVG Export Plug-In . SVG Version: 6.00 Build 0)  -->
<svg version="1.2" xmlns:xlink="http://www.w3.org/1999/xlink" width="612px" height="612.5px" viewBox="0 0 612 612.5" baseProfile="tiny-ps" xmlns="http://www.w3.org/2000/svg">
  <title>favicon_large_bimi</title>
<g>
	<g>
		<path d="M0,0c204.166,0,408.332,0,612.498,0c0,204.166,0,408.334,0,612.5c-204.166,0-408.332,0-612.498,0C0,408.334,0,204.166,0,0    z M591.639,306.25c-0.074,0-0.149,0-0.225,0c0-80.573-0.075-161.125,0.024-241.698c0.05-32.8-11.29-44.488-42.991-44.464    c-160.054,0.199-320.132,0.352-480.21,0.3c-37.06,0-46.755,10.219-46.681,46.406c0.349,160.128,0.299,320.281-0.049,480.435    c-0.075,33.246,8.723,43.54,42.742,43.614c163.143,0.299,326.312,0.473,489.431,0.547c25.246,0,38.032-14.079,38.007-40.424    C591.589,469.368,591.639,387.822,591.639,306.25z" />
		<path fill="#FFFFFF" d="M591.639,306.25c0,81.572-0.05,163.118,0.024,244.689c0.024,26.345-12.761,40.427-38.008,40.427    c-163.144-0.077-326.313-0.251-489.43-0.55c-34.02-0.074-42.816-10.368-42.743-43.614c0.374-160.153,0.399-320.306,0.051-480.434    c-0.051-36.162,9.645-46.407,46.704-46.381c160.054,0.051,320.156-0.074,480.234-0.274c31.702-0.025,43.042,11.665,42.992,44.463    c-0.126,80.574-0.025,161.1-0.025,241.699C591.49,306.25,591.565,306.25,591.639,306.25z M300.343,528.834c0,0.55,0,1.071,0,1.621    c26.519,0,53.06,0.273,79.578-0.051c42.793-0.548,85.608-0.921,128.378-2.791c7.925-0.348,15.552-7.426,23.327-11.365    c-4.388-7.203-7.753-15.4-13.408-21.407c-13.934-14.806-30.655-27.24-43.092-43.117c-17.721-22.628-31.254-20.535-48.2,0.624    c-28.139,35.189-64.749,50.519-110.507,44.338c-21.907-2.967-34.219-12.984-34.692-34.817    c-0.723-35.665-0.623-71.403-0.25-107.118c0.199-19.116,10.667-26.368,29.833-25.595c34.617,1.42,69.385,0.199,103.953,1.97    c19.215,0.995,32.424-7.178,30.182-24.475c-1.172-9.047-17.571-22.206-27.864-22.904c-34.468-2.369-69.409-1.571-103.928,1.146    c-23.228,1.818-32.375-7.003-32.398-28.686c-0.025-33.696,0.174-67.367,0.1-101.036c-0.076-25.146,13.309-36.313,37.309-39.329    c45.783-5.758,81.723,10.842,109.885,46.108c14.629,18.392,27.963,21.009,44.338,1.146c12.235-14.829,27.813-26.792,40.947-40.924    c6.952-7.502,11.888-16.946,17.72-25.521c-9.794-3.888-19.564-11.041-29.384-11.117c-132.538-0.821-265.103-0.947-397.641-0.197    c-7.601,0.05-15.178,9.419-22.805,14.431c7.9,4.734,15.377,12.71,23.701,13.73c56.725,7.029,61.633,12.537,61.31,67.965    c-0.448,84.686-0.199,169.398,0,254.137c0.101,52.162-7.277,59.888-58.543,64.848c-9.195,0.872-17.769,8.523-26.642,13.06    c8.673,5.134,17.271,14.531,26.068,14.705C171.817,529.431,236.093,528.834,300.343,528.834z" />
		<path d="M300.343,528.834c-64.25,0-128.526,0.599-192.751-0.646c-8.798-0.175-17.396-9.569-26.069-14.704    c8.898-4.512,17.445-12.188,26.644-13.061c51.266-4.96,58.667-12.687,58.543-64.849c-0.2-84.713-0.449-169.426,0-254.136    c0.324-55.429-4.586-60.937-61.311-67.965c-8.324-0.996-15.801-8.972-23.677-13.706c7.627-5.034,15.204-14.381,22.829-14.431    c132.54-0.75,265.102-0.648,397.666,0.197c9.818,0.076,19.59,7.229,29.384,11.117c-5.832,8.549-10.768,17.993-17.72,25.521    c-13.136,14.131-28.711,26.144-40.947,40.924c-16.375,19.862-29.709,17.246-44.338-1.146    c-28.162-35.241-64.076-51.84-109.884-46.107c-24.025,3.016-37.385,14.182-37.31,39.328c0.074,33.694-0.125,67.365-0.1,101.036    c0,21.658,9.172,30.481,32.424,28.686c34.519-2.716,69.436-3.516,103.903-1.146c10.268,0.698,26.691,13.856,27.861,22.904    c2.244,17.297-10.965,25.47-30.18,24.475c-34.567-1.745-69.336-0.55-103.953-1.97c-19.14-0.772-29.633,6.479-29.833,25.595    c-0.398,35.689-0.498,71.43,0.275,107.118c0.448,21.833,12.759,31.876,34.667,34.817c45.758,6.181,82.369-9.122,110.507-44.338    c16.947-21.159,30.479-23.252,48.2-0.624c12.437,15.877,29.159,28.313,43.092,43.117c5.657,6.031,9.021,14.205,13.433,21.407    c-7.774,3.939-15.427,11.019-23.353,11.365c-42.769,1.87-85.584,2.218-128.377,2.791    C353.452,530.727,300.343,529.384,300.343,528.834z" />
	</g>
</g>
<rect x="0" y="0" fill="none" width="88.833" height="88.833" />
<path d="M456.5,628.5" />
</svg>